<svg xmlns="http://www.w3.org/2000/svg" xmlns:xlink="http://www.w3.org/1999/xlink" width="120" height="108" viewBox="0 0 345.944 311.349" xmlns:v="https://vecta.io/nano"><g transform="matrix(.234159 0 0 .234159 -62.57616 -60.257701)"><circle cx="1008.841" cy="921.009" r="449.028" fill="#e5e5e5"/><path d="M857.26 1153.218c0 5.725-.894 10.792-2.678 15.203s-4.386 8.128-7.798 11.147-7.602 5.317-12.564 6.893-10.806 2.363-17.527 2.363h-8.508v32.534a2.19 2.19 0 0 1-.512 1.418c-.343.42-.905.762-1.694 1.024s-1.84.473-3.15.63-2.994.236-5.04.236c-1.996 0-3.663-.08-5.002-.236s-2.403-.366-3.2-.63-1.34-.603-1.655-1.024a2.3 2.3 0 0 1-.473-1.418v-91.692c0-2.467.642-4.32 1.93-5.554s2.98-1.85 5.08-1.85h24.026a82.94 82.94 0 0 1 6.893.275c2.18.182 4.8.58 7.837 1.182s6.13 1.72 9.256 3.348 5.8 3.7 7.996 6.184 3.886 5.4 5.04 8.744 1.734 7.078 1.734 11.225zm-21.662 1.496c0-3.57-.63-6.5-1.9-8.823s-2.8-4.017-4.647-5.12-3.77-1.798-5.8-2.087-4.1-.434-6.262-.434h-8.823v34.58h9.295c3.308 0 6.077-.445 8.3-1.34s4.056-2.14 5.475-3.742 2.494-3.517 3.23-5.75 1.102-4.66 1.102-7.287zm126.422 66.8c0 .58-.105 1.064-.316 1.457s-.7.723-1.496.985-1.943.445-3.467.552l-6.223.157c-2.205 0-3.966-.053-5.276-.157s-2.35-.303-3.112-.6-1.3-.655-1.615-1.103-.58-.985-.787-1.615l-9.138-22.765-3.23-6.853c-1.052-1.995-2.22-3.663-3.506-5.002s-2.77-2.35-4.45-3.033-3.624-1.024-5.83-1.024h-6.46v38.835a2.19 2.19 0 0 1-.512 1.418c-.343.42-.905.762-1.694 1.024s-1.84.473-3.15.63-2.994.236-5.04.236c-1.996 0-3.663-.08-5.002-.236s-2.403-.366-3.2-.63-1.34-.603-1.655-1.024a2.3 2.3 0 0 1-.473-1.418V1128.8c0-2.3.6-3.978 1.773-5.002s2.64-1.536 4.372-1.536h26.4l6.617.157 4.727.394c4.097.58 7.785 1.576 11.068 2.994s6.066 3.27 8.35 5.554 4.03 5 5.238 8.114 1.812 6.7 1.812 10.752c0 3.415-.434 6.527-1.3 9.335s-2.14 5.317-3.82 7.523-3.755 4.124-6.222 5.75-5.277 2.942-8.428 3.938a23.57 23.57 0 0 1 4.293 2.678c1.34 1.052 2.6 2.324 3.78 3.82s2.296 3.204 3.348 5.12 2.074 4.085 3.07 6.498l8.587 20.087c.787 1.996 1.313 3.454 1.576 4.372s.393 1.644.393 2.167zm-26.704-69.163c0-3.36-.762-6.196-2.285-8.508s-4.017-3.938-7.484-4.884c-1.052-.262-2.245-.473-3.584-.63s-3.2-.236-5.554-.236h-9.295v28.9h10.556c2.94 0 5.514-.355 7.72-1.064s4.043-1.705 5.514-2.994 2.572-2.822 3.308-4.608 1.104-3.78 1.104-5.986zm115.392 63.73c0 1.525-.067 2.796-.197 3.82s-.33 1.85-.6 2.48-.6 1.1-.985 1.378-.827.434-1.3.434h-51.202c-1.733 0-3.2-.512-4.372-1.536s-1.773-2.7-1.773-5.002V1128.8c0-2.3.6-3.978 1.773-5.002s2.64-1.536 4.372-1.536h50.887c.473 0 .892.132 1.26.394s.682.723.946 1.378.46 1.496.6 2.52.197 2.324.197 3.9c0 1.47-.067 2.717-.197 3.742s-.33 1.85-.6 2.48-.58 1.1-.946 1.378a1.98 1.98 0 0 1-1.26.434h-36.393v24.893h30.8c.473 0 .905.146 1.3.434s.72.736.985 1.34.46 1.418.6 2.442.197 2.273.197 3.742c0 1.525-.067 2.785-.197 3.78s-.33 1.8-.6 2.403-.6 1.038-.985 1.3a2.28 2.28 0 0 1-1.3.394h-30.8v28.752h36.708c.473 0 .905.146 1.3.434s.72.748.985 1.378.46 1.457.6 2.48.197 2.295.197 3.817zm90.187-22.45c0 5.357-.998 10.058-2.994 14.1s-4.7 7.418-8.114 10.122-7.405 4.74-11.973 6.105-9.453 2.048-14.65 2.048c-3.52 0-6.788-.3-9.808-.866s-5.686-1.272-7.996-2.087-4.24-1.666-5.8-2.56-2.666-1.68-3.348-2.363-1.17-1.666-1.457-2.954-.434-3.137-.434-5.554c0-1.626.052-2.994.157-4.097s.275-1.995.512-2.678.552-1.168.946-1.457.853-.434 1.378-.434c.735 0 1.773.434 3.112 1.3s3.058 1.826 5.16 2.876 4.608 2 7.523 2.876 6.288 1.3 10.122 1.3c2.52 0 4.778-.3 6.775-.905s3.688-1.457 5.08-2.56a10.84 10.84 0 0 0 3.19-4.097c.735-1.626 1.103-3.438 1.103-5.436 0-2.3-.63-4.293-1.9-5.947s-2.902-3.124-4.923-4.4-4.32-2.494-6.893-3.624l-7.956-3.584c-2.73-1.26-5.383-2.7-7.956-4.293a31.99 31.99 0 0 1-6.893-5.75c-2.023-2.233-3.663-4.87-4.923-7.917s-1.9-6.696-1.9-10.95c0-4.884.905-9.177 2.717-12.88s4.254-6.775 7.326-9.217 6.696-4.265 10.87-5.475 8.6-1.812 13.273-1.812a48.35 48.35 0 0 1 7.248.552c2.418.366 4.673.866 6.775 1.496s3.965 1.34 5.593 2.126 2.704 1.446 3.23 1.97.88.973 1.064 1.34.34.855.473 1.457.223 1.366.275 2.285a62.18 62.18 0 0 1 .08 3.426c0 1.525-.04 2.8-.118 3.86s-.2 1.918-.394 2.6-.447 1.182-.787 1.496-.802.473-1.378.473-1.496-.366-2.757-1.103-2.8-1.536-4.647-2.403-3.966-1.655-6.38-2.363-5.068-1.064-7.956-1.064c-2.26 0-4.228.275-5.908.827s-3.086 1.314-4.215 2.285a9 9 0 0 0-2.52 3.506c-.55 1.366-.827 2.8-.827 4.333 0 2.26.616 4.215 1.85 5.868s2.888 3.126 4.963 4.4 4.424 2.496 7.05 3.624l8.035 3.584a79.26 79.26 0 0 1 8.035 4.293 32.32 32.32 0 0 1 7.011 5.75c2.048 2.233 3.702 4.858 4.963 7.878s1.9 6.58 1.9 10.676zm89.32 0c0 5.357-.998 10.058-2.994 14.1s-4.7 7.418-8.114 10.122-7.405 4.74-11.973 6.105-9.453 2.048-14.65 2.048c-3.52 0-6.788-.3-9.808-.866s-5.686-1.272-7.996-2.087-4.242-1.666-5.8-2.56-2.667-1.68-3.348-2.363-1.17-1.666-1.457-2.954-.434-3.137-.434-5.554c0-1.626.05-2.994.157-4.097s.275-1.995.512-2.678.552-1.168.946-1.457.853-.434 1.378-.434c.735 0 1.773.434 3.112 1.3s3.058 1.826 5.16 2.876 4.608 2 7.523 2.876 6.288 1.3 10.122 1.3c2.52 0 4.777-.3 6.775-.905s3.688-1.457 5.08-2.56a10.86 10.86 0 0 0 3.19-4.097c.735-1.626 1.103-3.438 1.103-5.436 0-2.3-.63-4.293-1.9-5.947s-2.903-3.124-4.923-4.4-4.32-2.494-6.893-3.624l-7.956-3.584a74.08 74.08 0 0 1-7.956-4.293 32.13 32.13 0 0 1-6.893-5.75c-2.023-2.23-3.663-4.87-4.923-7.917s-1.9-6.696-1.9-10.95c0-4.884.905-9.177 2.717-12.88s4.254-6.775 7.326-9.217 6.696-4.265 10.87-5.475 8.598-1.812 13.273-1.812a48.36 48.36 0 0 1 7.248.552c2.418.366 4.673.866 6.775 1.496s3.965 1.34 5.593 2.126 2.704 1.446 3.23 1.97.878.973 1.064 1.34.34.855.473 1.457.223 1.366.275 2.285a62.18 62.18 0 0 1 .08 3.426c0 1.525-.04 2.8-.118 3.86s-.2 1.918-.394 2.6-.447 1.182-.787 1.496-.802.473-1.378.473-1.496-.366-2.757-1.103-2.8-1.536-4.647-2.403-3.967-1.655-6.38-2.363-5.07-1.064-7.956-1.064c-2.26 0-4.228.275-5.908.827s-3.086 1.314-4.215 2.285a9 9 0 0 0-2.52 3.506c-.55 1.366-.827 2.8-.827 4.333 0 2.26.616 4.215 1.85 5.868s2.887 3.126 4.963 4.4 4.423 2.496 7.05 3.624l8.035 3.584c2.73 1.26 5.407 2.692 8.035 4.293a32.32 32.32 0 0 1 7.011 5.75c2.048 2.233 3.702 4.858 4.963 7.878s1.9 6.58 1.9 10.676zM1008.84 1352.9c-184.292 0-341.96-116.8-403.632-279.125h-222.4c8.14 33.274 19.007 66.163 32.58 98.25 32.448 76.715 78.877 145.464 137.998 204.586s127.994 105.486 204.7 137.935c79.48 33.616 163.846 50.63 250.755 50.63s171.276-17.06 250.756-50.68c76.715-32.447 145.6-78.883 204.7-138.004s105.55-127.75 137.998-204.464a646.87 646.87 0 0 0 32.58-98.255h-222.4c-61.67 162.335-219.338 279.125-403.632 279.125zm0-862.755c184.674 0 342.6 115.782 404 280.133h222.28c-8.165-34.282-19.116-67.353-32.825-99.763-32.448-76.715-78.878-145.714-137.998-204.835s-127.995-105.613-204.7-138.06c-79.48-33.617-163.846-50.694-250.756-50.694s-171.275 17.03-250.755 50.646c-76.715 32.448-145.6 78.87-204.7 138s-105.55 128.243-138 204.957c-13.7 32.4-24.66 65.477-32.825 99.76h222.28c61.402-164.35 219.337-280.133 404-280.133z" fill="#00137f"/><path d="M295.076 1073.764h1427.53l.245-303.496H294.83z" fill="red"/><g transform="matrix(1.008291 0 0 1.008291 .549684 -10.148934)"><g fill="#fff"><path d="M575.8 660.392c1.596.28 2.816.58 3.662.897s1.348.796 1.505 1.435-.017 1.522-.518 2.65-1.274 2.632-2.315 4.515l-2.62 4.534c-.66 1.064-1.236 1.838-1.723 2.32s-.94.76-1.368.823-.923.042-1.492-.072l-17.298-3.024-15.5 28.006 11.52 12.546c.438.443.763.887.98 1.332s.27 1.004.168 1.674-.4 1.535-.89 2.594l-2.104 4.066-2.463 4.057c-.665.938-1.317 1.48-1.958 1.627s-1.32-.054-2.04-.602-1.602-1.413-2.65-2.596l-51.406-58.48c-.506-.58-.87-1.132-1.1-1.656s-.248-1.18-.08-1.965.553-1.788 1.156-3.01l2.53-4.77 3.082-5.37c.8-1.313 1.5-2.288 2.13-2.923s1.225-1.004 1.814-1.104 1.304-.068 2.14.092zm-71.956 4.89l-.03.058L528.7 692.9l11.704-21.148z"/><path d="M542.973 730.918c-.627 0-1.276-.253-1.93-.75-.74-.564-1.655-1.46-2.72-2.66l-51.408-58.483c-.54-.62-.936-1.224-1.175-1.793-.26-.615-.297-1.377-.1-2.263.176-.823.58-1.875 1.197-3.128l2.54-4.792 3.093-5.4c.813-1.337 1.553-2.35 2.197-3.012.7-.7 1.395-1.13 2.1-1.25.65-.107 1.426-.076 2.315.094l76.815 12.406c1.625.286 2.887.596 3.76.923 1.006.378 1.616.978 1.814 1.783.186.757.007 1.73-.546 2.973-.508 1.14-1.294 2.67-2.335 4.554l-2.632 4.557c-.688 1.106-1.275 1.895-1.795 2.4-.57.566-1.108.882-1.646.963-.474.073-1.04.05-1.666-.076l-16.935-2.96-15.15 27.38 11.274 12.28c.46.466.822.96 1.06 1.45.26.537.33 1.2.212 1.97-.113.726-.417 1.617-.93 2.728l-2.12 4.1-2.493 4.104c-.745 1.05-1.483 1.647-2.254 1.824-.17.04-.345.06-.52.06zm-45.412-82.584a3.97 3.97 0 0 0-.647.05c-.48.082-1 .404-1.54.96-.593.607-1.285 1.562-2.06 2.834l-3.072 5.354-2.52 4.75c-.582 1.18-.957 2.152-1.115 2.895-.145.68-.127 1.24.052 1.666.2.47.537.983 1.007 1.522l51.405 58.48c1.02 1.15 1.9 2.003 2.577 2.528.594.452 1.13.622 1.624.512.515-.118 1.073-.6 1.662-1.43.648-.913 1.468-2.263 2.434-4l2.088-4.033c.466-1 .752-1.84.85-2.462.088-.564.046-1.028-.124-1.38-.2-.394-.488-.797-.884-1.198l-11.774-12.825 15.845-28.632L571.02 677c.525.106.96.13 1.33.07.316-.048.684-.278 1.092-.685.458-.454 1.014-1.204 1.65-2.23l2.606-4.513 2.296-4.476c.564-1.27.577-1.966.5-2.327-.117-.473-.508-.828-1.195-1.086-.814-.306-2.017-.6-3.573-.873L498.9 648.476a7.16 7.16 0 0 0-1.329-.142zm31.237 45.4L503.2 665.412l.345-.626.384.005 37.25 6.58zM505.1 666l23.5 26.022 11.026-19.923zm106.893-62.538l2.1 1.73c.552.507.998.974 1.34 1.402s.598.847.77 1.254.302.953.396 1.633.024 1.804-.2 3.367-.683 3.352-1.342 5.363-1.588 4.18-2.78 6.502-2.7 4.668-4.518 7.035c-3.558 4.632-7.46 8.278-11.704 10.94s-8.746 4.245-13.504 4.743-9.73-.137-14.918-1.907-10.517-4.755-15.985-8.955c-5.57-4.278-9.927-8.84-13.07-13.693s-5.13-9.778-5.953-14.785-.52-10.017.918-15.03 3.933-9.837 7.5-14.47c1.444-1.88 2.986-3.574 4.627-5.082s3.275-2.813 4.9-3.918 3.215-2 4.765-2.693 2.734-1.097 3.552-1.217 1.443-.15 1.88-.092.934.22 1.486.477 1.17.6 1.852 1.05 1.495 1.023 2.44 1.75c1.013.778 1.847 1.475 2.503 2.088s1.136 1.178 1.44 1.688.465.968.48 1.366a1.6 1.6 0 0 1-.338 1.069c-.4.522-1.205.957-2.4 1.304s-2.66.88-4.36 1.592-3.524 1.724-5.466 3.027-3.848 3.177-5.72 5.613c-2.06 2.682-3.366 5.484-3.92 8.407s-.413 5.884.426 8.88 2.363 5.955 4.577 8.872 5.076 5.726 8.587 8.42c3.848 2.956 7.496 5.107 10.942 6.453s6.664 1.962 9.65 1.848 5.75-.898 8.287-2.354 4.84-3.522 6.898-6.204c1.87-2.437 3.212-4.76 4.02-6.962s1.36-4.2 1.66-6 .496-3.3.585-4.534.306-2.076.653-2.53c.268-.348.55-.574.845-.68s.7-.07 1.2.1 1.158.502 1.938 1 1.777 1.2 2.992 2.132z"/><path d="M579.35 648.108c-3.822 0-7.83-.706-11.9-2.1-5.215-1.778-10.64-4.816-16.13-9.03-5.6-4.294-10.027-8.943-13.186-13.817-3.168-4.886-5.195-9.924-6.026-14.977s-.52-10.186.93-15.25c1.445-5.05 3.993-9.975 7.573-14.636 1.454-1.893 3.03-3.624 4.686-5.146 1.648-1.514 3.316-2.848 4.958-3.964s3.27-2.034 4.843-2.735c1.6-.717 2.814-1.128 3.682-1.255s1.545-.157 2.02-.093c.5.067 1.038.24 1.632.52a16.82 16.82 0 0 1 1.911 1.081c.688.446 1.52 1.043 2.473 1.773 1.018.782 1.872 1.495 2.54 2.12.697.655 1.197 1.243 1.527 1.797.352.6.532 1.114.552 1.603.02.52-.13.988-.44 1.394-.473.615-1.346 1.1-2.67 1.48-1.183.342-2.632.87-4.306 1.572-1.663.697-3.474 1.7-5.38 2.98-1.9 1.27-3.773 3.12-5.603 5.503-2.002 2.606-3.3 5.363-3.826 8.195s-.397 5.745.416 8.652c.817 2.923 2.33 5.852 4.494 8.704 2.176 2.868 5.033 5.67 8.493 8.327 3.793 2.913 7.434 5.062 10.82 6.384 3.367 1.315 6.544 1.922 9.45 1.813 2.894-.1 5.604-.88 8.06-2.287 2.47-1.414 4.74-3.458 6.75-6.075 1.833-2.386 3.16-4.684 3.945-6.83.793-2.164 1.344-4.15 1.638-5.9.298-1.767.492-3.276.58-4.487.096-1.344.343-2.26.756-2.798.325-.423.686-.707 1.072-.847.4-.145.9-.113 1.54.097.554.187 1.222.526 2.043 1.04.8.495 1.8 1.22 3.03 2.16.854.656 1.57 1.248 2.126 1.76.567.52 1.035 1.013 1.392 1.46.367.46.65.922.838 1.372s.33 1.04.43 1.758c.102.738.032 1.887-.212 3.5-.237 1.58-.695 3.413-1.36 5.445-.663 2.02-1.608 4.233-2.8 6.574s-2.74 4.733-4.565 7.1c-3.575 4.655-7.557 8.376-11.835 11.06-4.292 2.692-8.907 4.313-13.717 4.816-1.06.113-2.144.17-3.224.17zm-19.118-82.035c-.353 0-.795.038-1.315.115-.766.112-1.916.5-3.42 1.18-1.518.678-3.095 1.57-4.687 2.65-1.602 1.1-3.23 2.393-4.844 3.873s-3.15 3.17-4.57 5.02c-3.503 4.56-5.994 9.373-7.405 14.302-1.4 4.922-1.714 9.905-.905 14.813.8 4.915 2.787 9.825 5.88 14.595 3.097 4.778 7.456 9.344 12.956 13.568 5.4 4.147 10.73 7.135 15.843 8.878 5.093 1.738 10.04 2.37 14.704 1.884 4.657-.488 9.13-2.06 13.3-4.67 4.177-2.62 8.07-6.263 11.573-10.823 1.8-2.33 3.294-4.672 4.47-6.96 1.178-2.294 2.103-4.457 2.75-6.43.648-1.98 1.094-3.756 1.322-5.282.228-1.507.298-2.592.2-3.226s-.2-1.14-.362-1.5c-.152-.363-.387-.745-.697-1.134-.324-.406-.757-.858-1.286-1.346s-1.227-1.063-2.058-1.702c-1.196-.92-2.2-1.627-2.953-2.104-.743-.465-1.36-.78-1.83-.94-.392-.13-.705-.167-.885-.103-.2.072-.4.245-.615.514-.196.256-.45.856-.552 2.26-.1 1.243-.287 2.784-.6 4.582-.305 1.812-.87 3.856-1.685 6.078-.82 2.24-2.197 4.628-4.092 7.095-2.1 2.723-4.462 4.854-7.046 6.333-2.596 1.488-5.46 2.302-8.518 2.42-3.042.115-6.356-.516-9.852-1.88-3.475-1.357-7.197-3.552-11.065-6.522-3.53-2.7-6.45-5.576-8.68-8.516-2.24-2.953-3.8-5.994-4.66-9.04-.855-3.058-1.002-6.122-.436-9.108s1.918-5.887 4.016-8.618c1.896-2.468 3.86-4.393 5.838-5.724 1.96-1.317 3.828-2.352 5.55-3.073 1.7-.717 3.195-1.26 4.416-1.6 1.364-.392 1.923-.83 2.152-1.128a1.11 1.11 0 0 0 .235-.746c-.013-.312-.15-.7-.4-1.13-.278-.466-.733-.997-1.354-1.578-.643-.603-1.473-1.294-2.465-2.057-.93-.715-1.74-1.295-2.406-1.726s-1.265-.77-1.792-1.016c-.503-.234-.954-.38-1.342-.435-.12-.016-.263-.024-.424-.024zm101.628-12.03l1.83 2.007a12.58 12.58 0 0 1 1.13 1.574 5.27 5.27 0 0 1 .585 1.35c.11.428.167.985.165 1.673s-.23 1.788-.68 3.304-1.144 3.224-2.077 5.124-2.154 3.917-3.66 6.05-3.324 4.246-5.455 6.336c-4.168 4.1-8.54 7.158-13.115 9.202s-9.253 2.983-14.033 2.813-9.615-1.492-14.506-3.97-9.75-6.176-14.58-11.098c-4.92-5.013-8.597-10.14-11.033-15.382s-3.714-10.398-3.832-15.472.884-10 3.006-14.756 5.267-9.192 9.435-13.283c1.692-1.66 3.456-3.122 5.292-4.387s3.635-2.328 5.398-3.195 3.463-1.533 5.095-2.002 2.86-.705 3.687-.7 1.45.053 1.875.172.894.347 1.405.68 1.074.766 1.688 1.297 1.337 1.223 2.17 2.073a31.4 31.4 0 0 1 2.187 2.416c.563.7.962 1.324 1.192 1.872s.325 1.022.285 1.42a1.6 1.6 0 0 1-.484 1.012c-.47.46-1.326.78-2.568.955s-2.756.5-4.542.968-3.73 1.215-5.833 2.235-4.254 2.608-6.447 4.76c-2.414 2.368-4.1 4.96-5.055 7.778s-1.23 5.77-.818 8.852 1.5 6.227 3.295 9.424 4.23 6.378 7.328 9.537c3.398 3.463 6.7 6.103 9.937 7.916s6.324 2.873 9.298 3.177 5.818-.1 8.535-1.175 5.282-2.813 7.696-5.182c2.192-2.15 3.844-4.264 4.95-6.333s1.934-3.968 2.48-5.7.95-3.2 1.2-4.408.592-2.013 1-2.413c.313-.307.624-.492.93-.555s.702.026 1.186.268 1.077.66 1.78 1.25 1.6 1.433 2.662 2.526z"/><path d="M627.652 593.994c-.372 0-.745-.006-1.118-.02-4.832-.172-9.782-1.525-14.715-4.023-4.917-2.5-9.866-6.256-14.7-11.193-4.938-5.032-8.683-10.254-11.13-15.522-2.455-5.28-3.76-10.552-3.88-15.67-.12-5.123.907-10.16 3.05-14.972 2.135-4.798 5.346-9.318 9.54-13.436a40.49 40.49 0 0 1 5.357-4.442c1.846-1.27 3.684-2.357 5.462-3.232s3.522-1.558 5.178-2.033c1.692-.485 2.942-.724 3.82-.73h.106c.824 0 1.447.063 1.905.2.472.132 1 .382 1.544.74.528.345 1.114.795 1.742 1.338.62.538 1.36 1.245 2.2 2.1.896.912 1.643 1.737 2.22 2.453.6.733 1.017 1.404 1.264 1.992.266.634.37 1.178.32 1.663a2.09 2.09 0 0 1-.632 1.318c-.554.544-1.486.9-2.85 1.093-1.22.174-2.73.495-4.484.956-1.743.46-3.676 1.2-5.74 2.2-2.048.995-4.173 2.565-6.315 4.668-2.347 2.302-4.006 4.854-4.932 7.582s-1.196 5.633-.796 8.625c.4 3.008 1.5 6.12 3.235 9.247 1.756 3.145 4.194 6.317 7.25 9.43 3.352 3.415 6.656 6.05 9.824 7.83 3.147 1.77 6.2 2.82 9.104 3.114 2.88.293 5.67-.1 8.3-1.142 2.643-1.056 5.176-2.763 7.53-5.073 2.147-2.107 3.782-4.197 4.86-6.212 1.088-2.034 1.9-3.923 2.446-5.615.54-1.708.943-3.175 1.198-4.36.284-1.32.656-2.192 1.14-2.665.382-.374.78-.605 1.18-.688.424-.1.916.015 1.5.3.524.263 1.14.692 1.878 1.314.72.605 1.628 1.467 2.7 2.56.756.77 1.38 1.457 1.86 2.04.487.592.882 1.143 1.174 1.638.3.508.515 1.005.64 1.477s.183 1.078.18 1.8c-.003.742-.23 1.87-.7 3.444-.457 1.535-1.166 3.285-2.108 5.202-.938 1.9-2.183 3.968-3.7 6.118s-3.374 4.306-5.513 6.405c-4.192 4.113-8.654 7.243-13.262 9.3-4.267 1.906-8.687 2.874-13.136 2.874zm-13.036-84.274h-.1c-.775.005-1.97.237-3.552.7-1.6.46-3.284 1.122-5.012 1.97-1.735.854-3.53 1.916-5.336 3.158s-3.56 2.7-5.225 4.333c-4.105 4.028-7.244 8.446-9.328 13.13-2.082 4.675-3.08 9.567-2.963 14.54s1.4 10.118 3.786 15.272c2.398 5.164 6.078 10.293 10.937 15.243 4.768 4.86 9.63 8.56 14.448 11 4.802 2.433 9.612 3.75 14.298 3.917 4.692.17 9.325-.765 13.812-2.77 4.498-2 8.862-5.07 12.97-9.102 2.097-2.058 3.912-4.166 5.396-6.268s2.703-4.12 3.618-5.983 1.606-3.564 2.047-5.046c.435-1.462.655-2.526.658-3.163s-.048-1.156-.148-1.545a4.92 4.92 0 0 0-.532-1.22c-.266-.45-.63-.958-1.085-1.5-.46-.56-1.066-1.224-1.8-1.974-1.052-1.07-1.937-1.9-2.63-2.496-.67-.563-1.235-.96-1.682-1.186-.496-.247-.72-.252-.86-.225-.2.043-.44.186-.682.423-.23.225-.564.782-.86 2.16-.26 1.217-.673 2.716-1.223 4.453-.554 1.75-1.4 3.696-2.518 5.785-1.125 2.104-2.82 4.275-5.04 6.454-2.45 2.404-5.095 4.184-7.86 5.288-2.777 1.1-5.73 1.52-8.77 1.208-3.03-.3-6.225-1.398-9.492-3.238-3.25-1.826-6.63-4.52-10.048-8-3.116-3.177-5.6-6.42-7.408-9.644-1.808-3.238-2.936-6.47-3.354-9.602-.42-3.146-.138-6.2.84-9.08s2.72-5.562 5.18-7.975c2.22-2.178 4.434-3.812 6.58-4.854 2.124-1.03 4.117-1.794 5.924-2.27 1.8-.47 3.34-.8 4.6-.98 1.404-.197 2.02-.554 2.3-.817.197-.193.308-.424.336-.705.032-.3-.052-.705-.248-1.175-.2-.5-.588-1.1-1.12-1.752-.555-.7-1.28-1.5-2.153-2.38-.82-.838-1.54-1.525-2.142-2.046-.594-.514-1.144-.937-1.634-1.256-.468-.304-.894-.512-1.268-.616-.362-.096-.913-.148-1.635-.148zm99.957-31.23c3.985 5.576 6.833 11.074 8.547 16.492s2.254 10.67 1.622 15.75-2.455 9.915-5.465 14.498-7.25 8.83-12.716 12.734c-5.395 3.854-10.6 6.533-15.586 8.037s-9.837 1.8-14.52.92-9.24-3.02-13.674-6.394-8.766-8.02-12.997-13.94c-3.885-5.437-6.666-10.84-8.342-16.207s-2.192-10.583-1.55-15.646 2.468-9.896 5.466-14.5 7.25-8.867 12.75-12.8c5.25-3.752 10.37-6.4 15.353-7.9s9.826-1.843 14.528-.965 9.268 2.964 13.7 6.26 8.728 7.85 12.884 13.67zm-14.27 11.294c-2.524-3.532-5.105-6.54-7.743-9.023s-5.38-4.263-8.228-5.342-5.817-1.362-8.907-.854-6.352 1.987-9.78 4.438c-3.466 2.477-5.907 5.177-7.326 8.1s-2.1 5.953-2.008 9.086.835 6.322 2.262 9.565 3.268 6.442 5.518 9.593c2.624 3.67 5.267 6.767 7.93 9.283s5.415 4.332 8.258 5.44 5.796 1.4 8.862.848 6.33-2.052 9.796-4.527 5.913-5.167 7.345-8.073 2.095-5.942 2-9.1-.884-6.392-2.336-9.67-3.33-6.53-5.63-9.75z"/><path d="M681.75 547.92a28.87 28.87 0 0 1-5.387-.507c-4.738-.9-9.4-3.083-13.884-6.486-4.452-3.387-8.86-8.113-13.102-14.05-3.898-5.456-6.73-10.956-8.412-16.35-1.7-5.4-2.218-10.744-1.567-15.858s2.517-10.063 5.543-14.7c3.02-4.632 7.353-8.982 12.88-12.932 5.27-3.767 10.484-6.452 15.497-7.98 5.037-1.538 10.006-1.867 14.766-.98s9.436 3.026 13.906 6.35c4.455 3.313 8.826 7.95 13 13.78 3.994 5.6 6.894 11.185 8.616 16.632 1.728 5.463 2.28 10.834 1.642 15.964s-2.504 10.083-5.543 14.7c-3.033 4.616-7.354 8.945-12.843 12.867-5.413 3.868-10.707 6.596-15.733 8.1-3.17.954-6.32 1.438-9.37 1.438zm1.024-89.338c-2.983 0-6.066.48-9.164 1.424-4.9 1.498-10.025 4.135-15.208 7.84-5.426 3.876-9.673 8.138-12.623 12.664-2.943 4.52-4.756 9.326-5.4 14.3-.632 4.97-.117 10.163 1.53 15.435 1.652 5.3 4.436 10.696 8.27 16.065 4.184 5.854 8.52 10.508 12.894 13.834 4.35 3.3 8.88 5.43 13.465 6.3s9.387.567 14.282-.906c4.92-1.48 10.116-4.16 15.44-7.965 5.388-3.85 9.623-8.1 12.588-12.603 2.954-4.498 4.767-9.305 5.387-14.285.62-4.987.08-10.215-1.603-15.54-1.7-5.347-4.543-10.85-8.477-16.353-4.104-5.745-8.402-10.307-12.774-13.558-4.348-3.232-8.888-5.308-13.493-6.17-1.68-.313-3.406-.472-5.125-.472zm3.378 73.1c-2.062 0-4.1-.387-6.056-1.15-2.892-1.127-5.724-3-8.42-5.542-2.67-2.524-5.36-5.673-8-9.356-2.263-3.166-4.137-6.424-5.57-9.682-1.447-3.3-2.222-6.57-2.304-9.754-.082-3.198.6-6.333 2.058-9.316s3.97-5.774 7.485-8.287c3.474-2.482 6.835-4.005 10-4.524s6.248-.223 9.165.88c2.896 1.098 5.72 2.93 8.394 5.445 2.65 2.496 5.277 5.558 7.808 9.098 2.3 3.235 4.222 6.545 5.68 9.836 1.472 3.322 2.27 6.638 2.38 9.856.107 3.234-.58 6.38-2.04 9.35s-3.986 5.746-7.503 8.26c-3.5 2.5-6.875 4.06-10 4.613-1.033.182-2.068.274-3.076.274zm-7.794-56.862a17.69 17.69 0 0 0-2.851.237c-3.003.495-6.223 1.96-9.57 4.352-3.38 2.415-5.8 5.076-7.167 7.9s-2.035 5.817-1.957 8.854c.078 3.052.824 6.207 2.22 9.377 1.406 3.194 3.245 6.392 5.468 9.503 2.595 3.63 5.24 6.73 7.865 9.2 2.602 2.462 5.325 4.258 8.096 5.337a15.6 15.6 0 0 0 5.691 1.081 16.64 16.64 0 0 0 2.901-.26c2.978-.527 6.205-2.02 9.594-4.442 3.38-2.416 5.8-5.07 7.187-7.888s2.04-5.805 1.938-8.873c-.104-3.1-.875-6.28-2.294-9.484-1.43-3.23-3.308-6.48-5.58-9.66-2.492-3.487-5.076-6.5-7.68-8.95-2.577-2.425-5.3-4.187-8.063-5.237a16.31 16.31 0 0 0-5.797-1.067zm119.88-25.017c2.194 4.566 3.467 8.984 3.815 13.255s-.222 8.302-1.714 12.1-3.9 7.285-7.23 10.5-7.567 6.048-12.7 8.52c-4.828 2.32-9.442 3.82-13.842 4.496s-8.5.462-12.294-.643-7.248-3.1-10.358-5.963-5.8-6.688-8.098-11.444l-21.775-45.283c-.185-.383-.23-.785-.143-1.207s.396-.874.917-1.36 1.247-1.024 2.182-1.616 2.173-1.257 3.716-2c1.503-.723 2.777-1.266 3.822-1.626s1.9-.588 2.596-.68 1.23-.05 1.636.134a1.74 1.74 0 0 1 .884.85l21.14 43.96c1.42 2.954 3.027 5.334 4.82 7.14s3.734 3.082 5.822 3.825 4.28 1 6.58.767 4.657-.928 7.07-2.1c2.452-1.18 4.474-2.6 6.063-4.262s2.718-3.515 3.4-5.563.88-4.272.626-6.677-1-4.9-2.265-7.52l-21.555-44.822c-.184-.383-.23-.785-.142-1.207s.386-.87.887-1.347 1.23-1.017 2.183-1.617 2.182-1.26 3.686-1.984 2.768-1.26 3.793-1.6 1.88-.573 2.565-.667 1.222-.044 1.606.148.67.48.854.864z"/><path d="M761.672 499.54c-2.622 0-5.162-.353-7.55-1.047-3.852-1.12-7.404-3.163-10.558-6.076-3.14-2.9-5.903-6.8-8.2-11.595L713.58 435.54c-.232-.48-.293-.995-.182-1.526s.46-1.06 1.065-1.624c.54-.505 1.3-1.068 2.255-1.673.944-.598 2.2-1.28 3.767-2.028 1.517-.73 2.82-1.283 3.876-1.647 1.07-.37 1.977-.606 2.7-.704.794-.107 1.417-.046 1.908.174a2.24 2.24 0 0 1 1.13 1.09l21.14 43.96c1.4 2.892 2.98 5.248 4.725 7.003 1.733 1.746 3.63 2.993 5.636 3.706s4.145.964 6.362.74c2.23-.225 4.554-.912 6.904-2.043 2.388-1.148 4.38-2.547 5.918-4.156 1.528-1.598 2.63-3.405 3.277-5.373s.85-4.144.604-6.468c-.25-2.338-.995-4.813-2.218-7.355l-21.555-44.822a2.34 2.34 0 0 1-.181-1.528c.113-.525.45-1.05 1.03-1.604.524-.5 1.285-1.064 2.262-1.678.962-.605 2.22-1.283 3.734-2.013 1.52-.73 2.814-1.28 3.848-1.634 1.05-.36 1.944-.6 2.66-.7.8-.108 1.422-.042 1.897.197a2.33 2.33 0 0 1 1.081 1.095l21.473 44.65c2.2 4.602 3.5 9.12 3.863 13.432.354 4.33-.234 8.472-1.747 12.313s-3.984 7.428-7.35 10.668c-3.355 3.23-7.676 6.128-12.84 8.6-4.848 2.33-9.553 3.858-13.982 4.54-1.688.256-3.357.388-4.958.388zm-33.904-72.255a4.36 4.36 0 0 0-.58.042c-.65.1-1.5.3-2.5.658-1.02.352-2.287.892-3.77 1.604-1.52.73-2.754 1.396-3.665 1.972-.904.572-1.613 1.097-2.107 1.56-.437.408-.703.8-.77 1.1s-.032.604.104.886l21.776 45.283c2.25 4.68 4.938 8.48 7.986 11.294 3.04 2.807 6.456 4.775 10.158 5.85s7.768 1.288 12.08.628c4.332-.666 8.94-2.164 13.7-4.453 5.07-2.438 9.303-5.273 12.58-8.43 3.262-3.14 5.655-6.6 7.113-10.313s2.022-7.7 1.68-11.865c-.342-4.188-1.6-8.588-3.768-13.08l-21.473-44.65a1.33 1.33 0 0 0-.627-.634c-.3-.146-.747-.178-1.314-.1-.652.1-1.483.306-2.472.645-.996.34-2.254.876-3.738 1.6s-2.705 1.372-3.636 1.958c-.92.578-1.628 1.102-2.104 1.556-.418.398-.675.775-.742 1.1a1.33 1.33 0 0 0 .104.886l21.555 44.822c1.272 2.646 2.05 5.23 2.3 7.684.26 2.466.043 4.783-.647 6.886s-1.873 4.045-3.505 5.752c-1.622 1.696-3.7 3.165-6.207 4.366-2.456 1.182-4.892 1.9-7.238 2.137-2.363.24-4.652-.03-6.798-.794s-4.17-2.1-6-3.943c-1.823-1.834-3.478-4.282-4.917-7.274l-21.14-43.96a1.25 1.25 0 0 0-.64-.61c-.2-.095-.464-.14-.78-.14zm163.8 19.857c.27.94.342 1.828.216 2.662s-.404 1.576-.833 2.23a5.53 5.53 0 0 1-1.718 1.654 8.96 8.96 0 0 1-2.278 1.02l-7.1 2.034c-1.48.424-2.796.646-3.954.67s-2.3-.215-3.424-.712-2.295-1.27-3.508-2.315-2.643-2.44-4.282-4.185l-31.035-31.283-5.66-6.115-5.43-6.512-.126.036 2.905 8.697 2.723 9.017L840 465.588a1.95 1.95 0 0 1-.031 1.205c-.138.395-.46.786-.965 1.174s-1.227.783-2.16 1.184-2.163.82-3.683 1.256l-3.725.87c-1.007.155-1.816.2-2.428.132s-1.073-.234-1.378-.502-.516-.604-.633-1.014l-20.47-71.375c-.552-1.923-.386-3.53.5-4.826s2.17-2.184 3.86-2.668l8.926-2.56c1.603-.46 2.992-.714 4.167-.763s2.28.1 3.32.475 2.097.982 3.168 1.85 2.236 1.982 3.496 3.348l24.278 24.453 4.24 4.396 4.1 4.34 3.902 4.293 3.75 4.238.063-.02-2.855-8.878-2.646-8.872-10.685-37.252a1.84 1.84 0 0 1 .063-1.215c.16-.4.5-.807 1.02-1.222s1.252-.813 2.193-1.193 2.172-.8 3.7-1.225l3.652-.882c1-.176 1.8-.217 2.397-.123s1.05.275 1.354.542a2.08 2.08 0 0 1 .634 1.014z"/><path d="M827.608 471.938a6.13 6.13 0 0 1-.664-.034c-.715-.078-1.27-.287-1.653-.623-.375-.327-.64-.75-.783-1.252l-20.47-71.375c-.592-2.064-.4-3.83.568-5.246.95-1.4 2.34-2.353 4.134-2.866l8.926-2.56c1.633-.468 3.074-.73 4.284-.782 1.24-.048 2.414.12 3.508.503s2.206 1.034 3.316 1.932c1.088.88 2.282 2.024 3.55 3.397l24.266 24.44 4.245 4.4 4.1 4.35 3.904 4.296 2.238 2.507-2.128-6.683-2.65-8.882-10.685-37.252a2.35 2.35 0 0 1 .078-1.536c.196-.5.58-.956 1.173-1.43.563-.447 1.32-.86 2.317-1.266.958-.387 2.217-.804 3.74-1.24l3.703-.894c1.058-.187 1.92-.227 2.562-.125.7.1 1.23.33 1.605.66s.644.754.786 1.253l20.47 71.375c.3 1.005.366 1.972.23 2.874s-.442 1.72-.908 2.43-1.1 1.32-1.87 1.805a9.43 9.43 0 0 1-2.406 1.075l-7.1 2.034c-1.514.434-2.887.665-4.082.688l-.163.001c-1.17 0-2.34-.254-3.473-.755-1.164-.514-2.387-1.32-3.632-2.395-1.226-1.056-2.68-2.476-4.32-4.22l-31.025-31.274-5.68-6.135-3.877-4.56 2.076 6.298 2.727 9.03 11.916 41.55a2.44 2.44 0 0 1-.039 1.508c-.172.492-.543.952-1.133 1.405-.537.412-1.3.832-2.27 1.247-.952.408-2.2.838-3.742 1.276l-3.786.883c-.724.115-1.36.172-1.894.172zm-5.23-83.748l-.387.008c-1.13.048-2.492.298-4.05.744l-8.926 2.56c-1.563.448-2.77 1.28-3.584 2.47-.805 1.176-.945 2.616-.433 4.406l20.47 71.375a1.57 1.57 0 0 0 .48.774c.227.2.598.327 1.104.382.573.064 1.34.02 2.297-.13.977-.15 2.2-.438 3.663-.855l3.624-1.234c.892-.383 1.582-.76 2.054-1.12.424-.326.692-.644.797-.94s.1-.593.022-.903l-11.916-41.548-2.72-9.002-2.9-8.685-.175-.5.96-.275.207.267 5.4 6.487 5.645 6.1 31.03 31.28 4.253 4.157c1.17 1 2.3 1.764 3.384 2.237 1.006.444 2.038.67 3.068.67l.144-.001c1.108-.02 2.396-.24 3.826-.65l7.1-2.034a8.41 8.41 0 0 0 2.15-.962c.65-.406 1.176-.913 1.564-1.505s.642-1.274.757-2.032.047-1.583-.202-2.448l-20.47-71.376c-.1-.316-.25-.57-.483-.776s-.603-.344-1.103-.424c-.547-.085-1.297-.043-2.232.122-.987.175-2.198.468-3.6.87l-3.643 1.208c-.894.36-1.6.738-2.07 1.12-.447.357-.74.7-.866 1.018-.117.297-.133.6-.047.9l10.685 37.252 2.644 8.862 2.853 8.867.166.496-.8.23-.272-.223-3.744-4.23-3.9-4.3-4.078-4.33-4.243-4.398-24.272-24.447c-1.247-1.35-2.405-2.46-3.456-3.312-1.02-.825-2.037-1.42-3.02-1.766a8.22 8.22 0 0 0-2.748-.457zm132.394-20.298c.162 1.225.246 2.276.253 3.155s-.064 1.598-.212 2.153-.368.982-.66 1.28-.635.47-1.026.523l-21.152 2.812 8.776 66a1.74 1.74 0 0 1-.273 1.195c-.238.376-.67.712-1.294 1s-1.484.584-2.577.857-2.467.52-4.12.742l-4.17.36c-1.125.02-2.03-.03-2.7-.155s-1.187-.335-1.514-.636-.52-.66-.576-1.083l-8.775-66-21.153 2.812c-.436.058-.822-.02-1.158-.232s-.652-.567-.94-1.066-.544-1.173-.768-2.023-.417-1.887-.58-3.1c-.168-1.266-.257-2.35-.266-3.25s.06-1.63.208-2.186.357-.97.632-1.243.628-.438 1.063-.496l59.54-7.915c.392-.052.766.017 1.123.205s.68.532.968 1.03.545 1.184.77 2.056.424 1.94.592 3.205z"/><path d="M927.836 448.495c-.936 0-1.717-.056-2.322-.167-.782-.142-1.36-.4-1.762-.76-.415-.38-.663-.846-.733-1.386l-8.7-65.514-20.657 2.745a2.15 2.15 0 0 1-1.491-.305c-.408-.256-.78-.673-1.106-1.24-.3-.535-.584-1.257-.817-2.146-.228-.865-.427-1.933-.592-3.172-.17-1.283-.262-2.396-.27-3.3-.01-.954.063-1.713.226-2.32.172-.65.42-1.13.762-1.47.353-.35.807-.565 1.35-.637l59.54-7.915a2.33 2.33 0 0 1 1.422.258c.44.23.832.643 1.167 1.222.314.545.583 1.258.823 2.18.23.885.434 1.983.604 3.266.163 1.236.25 2.32.257 3.217.007.935-.068 1.682-.23 2.285-.17.64-.436 1.146-.788 1.503a2.23 2.23 0 0 1-1.316.667l-20.657 2.746 8.7 65.515a2.24 2.24 0 0 1-.348 1.53c-.292.46-.783.85-1.5 1.192-.656.314-1.53.605-2.67.892-1.104.277-2.5.53-4.177.752l-4.228.365zm-12.668-68.95L924 446.05a1.24 1.24 0 0 0 .418.78c.256.235.682.408 1.265.513.548.1 1.27.15 2.144.15l.47-.004c1.1-.02 2.483-.14 4.114-.356l4.065-.73c1.06-.266 1.895-.543 2.482-.824.536-.255.902-.533 1.088-.826.175-.275.24-.557.2-.862l-8.843-66.506 21.648-2.878c.28-.037.522-.16.735-.378.23-.232.4-.6.534-1.058.136-.5.2-1.188.195-2.02-.007-.855-.1-1.896-.248-3.093l-.58-3.145c-.214-.824-.457-1.474-.72-1.932-.24-.413-.498-.695-.77-.838a1.32 1.32 0 0 0-.823-.151l-59.54 7.915c-.326.043-.58.16-.777.354-.208.207-.377.55-.5 1.017-.136.512-.2 1.2-.2 2.052.01.874.097 1.947.262 3.2.16 1.198.35 2.224.567 3.05.212.804.453 1.443.718 1.9.243.424.503.725.772.894.238.15.5.2.826.16zm116.436 57.058c.525 1.532.854 2.746.984 3.64s-.047 1.564-.53 2-1.342.72-2.57.826-2.92.155-5.07.152l-5.238-.103c-1.25-.065-2.205-.195-2.863-.387s-1.12-.46-1.38-.8-.484-.787-.658-1.34l-5.707-16.608-32.007-.044-5.424 16.146c-.177.597-.407 1.097-.694 1.5s-.747.723-1.383.955-1.538.4-2.7.476l-4.578.12-4.74-.198c-1.144-.13-1.933-.438-2.37-.93s-.6-1.182-.458-2.075.464-2.084.993-3.574l26.378-73.26c.266-.724.572-1.3.925-1.755s.913-.786 1.68-1.02 1.834-.38 3.195-.442l5.4-.1 6.2.104c1.536.066 2.734.217 3.6.452s1.47.587 1.842 1.056.7 1.107.953 1.916zm-39.038-60.645h-.065l-12.1 35.1 24.17.033z"/><path d="M1024.6 443.732h-.173l-5.264-.103c-1.3-.07-2.273-.202-2.977-.407-.77-.226-1.308-.544-1.638-.976-.3-.387-.55-.9-.738-1.495l-5.588-16.26-31.3-.043-5.3 15.804c-.188.632-.445 1.187-.762 1.63-.343.485-.888.868-1.618 1.135-.685.25-1.613.415-2.836.505l-4.428.122h-.188l-4.796-.2c-1.28-.145-2.16-.502-2.688-1.093-.54-.602-.734-1.438-.58-2.48.138-.925.48-2.16 1.017-3.668l26.38-73.262c.3-.787.616-1.405 1.002-1.895.415-.525 1.063-.925 1.93-1.188.807-.244 1.923-.4 3.317-.464l5.125-.1h.3l6.2.104c1.567.068 2.813.226 3.7.47.954.263 1.66.675 2.1 1.227.4.516.76 1.214 1.038 2.074l26.237 73.253c.535 1.562.874 2.816 1 3.736.155 1.062-.075 1.886-.685 2.45-.574.528-1.512.84-2.867.957-1.215.104-2.877.156-4.94.156zm-48.386-20.283l32.724.045 5.822 16.945c.158.504.353.902.58 1.197.195.255.573.465 1.126.626.62.18 1.544.305 2.75.368l5.213.102h.17l4.856-.15c1.383-.118 2-.444 2.273-.696.357-.33.48-.844.373-1.57-.125-.86-.45-2.054-.962-3.55l-26.24-73.262c-.246-.76-.54-1.353-.874-1.774-.304-.38-.837-.68-1.583-.885-.815-.224-1.986-.37-3.48-.435l-6.17-.104h-.297l-5.08.088c-1.313.06-2.347.202-3.074.422-.665.202-1.147.487-1.433.85-.314.4-.6.943-.848 1.617l-26.377 73.257c-.514 1.446-.84 2.617-.97 3.48-.1.746-.001 1.292.336 1.668.352.394 1.043.65 2.055.766 1.1.126 2.688.2 4.685.194h.187l4.355-.12c1.113-.082 1.977-.232 2.565-.447.535-.195.92-.456 1.146-.774.253-.355.463-.8.623-1.353zm29.066-11.858l-25.57-.035 12.444-36.098h.78zm-24.168-1.033l22.77.03-11.34-33.187zm123.773 16.545c-.4 2.912-1.154 5.494-2.297 7.746s-2.564 4.188-4.264 5.808-3.65 2.948-5.848 3.985-4.572 1.816-7.12 2.334-5.234.794-8.05.825-5.924-.178-9.318-.632l-22.455-2.997c-1.438-.192-2.6-.765-3.46-1.718s-1.182-2.357-.932-4.215l9.53-71.385c.248-1.855.916-3.13 2.006-3.823s2.35-.94 3.787-.75l21.217 2.832c5.178.7 9.506 1.7 12.984 3.022s6.332 3.003 8.563 5.04 3.824 4.45 4.78 7.24 1.197 5.957.725 9.5c-.264 1.983-.775 3.815-1.53 5.496s-1.73 3.173-2.922 4.473-2.592 2.403-4.197 3.305-3.387 1.567-5.346 2c2.334.742 4.445 1.776 6.328 3.1s3.465 2.92 4.744 4.788 2.203 3.977 2.775 6.33.673 4.92.302 7.705zm-17.9-1.8c.254-1.898.154-3.64-.3-5.226a9.85 9.85 0 0 0-2.369-4.148c-1.127-1.182-2.633-2.177-4.518-2.987s-4.396-1.423-7.53-1.842l-10.184-1.36-3.1 23.3 12.404 1.655c2.393.32 4.438.346 6.135.08s3.207-.797 4.53-1.586a9.99 9.99 0 0 0 3.279-3.169c.863-1.323 1.417-2.9 1.66-4.706zm.307-35.643c.22-1.646.156-3.157-.2-4.535s-.986-2.568-1.914-3.572-2.158-1.845-3.684-2.52-3.62-1.2-6.273-1.545l-8.682-1.16-2.838 21.264 9.596 1.28c2.48.33 4.498.3 6.055-.062s2.9-.987 4-1.85 1.994-1.924 2.652-3.188 1.082-2.637 1.28-4.113z"/><path d="M1076.733 448.305c-2.673 0-5.638-.216-8.813-.64l-22.455-2.998c-1.55-.207-2.815-.838-3.762-1.876-.972-1.065-1.327-2.62-1.058-4.62l9.53-71.384c.267-2 1.02-3.407 2.232-4.18 1.184-.752 2.563-1.032 4.122-.823l21.217 2.832c5.2.693 9.598 1.72 13.096 3.05 3.522 1.34 6.457 3.07 8.722 5.14 2.282 2.084 3.937 4.6 4.917 7.447s1.23 6.127.748 9.73c-.27 2.02-.797 3.914-1.57 5.636a17.23 17.23 0 0 1-3.01 4.605c-1.224 1.334-2.678 2.48-4.32 3.403a18.95 18.95 0 0 1-3.878 1.631c1.77.692 3.415 1.568 4.902 2.614a19.43 19.43 0 0 1 4.869 4.914c1.308 1.9 2.266 4.096 2.85 6.494s.688 5.054.312 7.9c-.395 2.954-1.185 5.614-2.347 7.905s-2.632 4.292-4.365 5.943-3.744 3.02-5.98 4.076c-2.224 1.05-4.658 1.85-7.235 2.372-2.57.522-5.3.804-8.145.835zm-21.18-85.586c-.964 0-1.842.247-2.607.734-.954.606-1.553 1.772-1.78 3.468l-9.53 71.385c-.228 1.692.044 2.975.806 3.812.795.87 1.827 1.382 3.156 1.56l22.455 2.998c3.132.418 6.053.63 8.68.63l.565-.004c2.772-.03 5.45-.305 7.957-.814 2.5-.5 4.856-1.28 7.007-2.297 2.138-1 4.062-2.32 5.717-3.896s3.052-3.48 4.162-5.672 1.868-4.743 2.247-7.585c.36-2.7.264-5.24-.3-7.52s-1.465-4.354-2.703-6.165-2.792-3.376-4.62-4.66c-1.833-1.3-3.916-2.3-6.2-3.032l-1.788-.568 1.834-.396c1.9-.412 3.653-1.064 5.206-1.938a16.46 16.46 0 0 0 4.074-3.207 16.3 16.3 0 0 0 2.834-4.34c.734-1.633 1.236-3.436 1.5-5.357.46-3.447.224-6.567-.7-9.273-.926-2.696-2.488-5.063-4.646-7.032-2.172-1.983-5-3.646-8.403-4.942-3.427-1.303-7.758-2.3-12.873-2.993l-21.217-2.832c-.3-.042-.573-.062-.846-.062zm19.43 72.718h0c-1.114 0-2.348-.1-3.667-.265l-12.9-1.723 3.24-24.28 10.68 1.427c3.162.422 5.74 1.054 7.66 1.878 1.938.833 3.514 1.876 4.682 3.1a10.38 10.38 0 0 1 2.488 4.356c.47 1.645.576 3.472.313 5.43-.25 1.88-.834 3.532-1.734 4.913s-2.06 2.5-3.442 3.325c-1.376.82-2.96 1.375-4.7 1.65-.794.126-1.673.188-2.612.188zm-15.443-2.846l11.9 1.6c1.275.17 2.465.256 3.534.256h0a15.91 15.91 0 0 0 2.456-.176c1.623-.255 3.087-.767 4.354-1.52 1.25-.747 2.3-1.76 3.116-3.013s1.35-2.768 1.582-4.5c.243-1.82.147-3.5-.284-5.02-.43-1.497-1.186-2.823-2.25-3.94-1.074-1.126-2.54-2.093-4.353-2.872-1.837-.788-4.326-1.396-7.398-1.806l-9.688-1.294zm16.963-32.995c-.98 0-2.078-.08-3.263-.238l-10.1-1.347 2.97-22.256 9.178 1.226c2.688.36 4.845.893 6.4 1.584 1.582.702 2.877 1.6 3.85 2.64.98 1.063 1.665 2.338 2.03 3.8.362 1.436.43 3.024.202 4.724-.204 1.528-.65 2.968-1.33 4.276a10.03 10.03 0 0 1-2.8 3.354c-1.17.9-2.567 1.552-4.2 1.94-.858.205-1.86.3-2.975.3zm-12.23-2.444l9.1 1.215c2.404.32 4.384.303 5.872-.053 1.482-.354 2.764-.945 3.8-1.757a9.26 9.26 0 0 0 2.516-3.025c.625-1.205 1.038-2.533 1.228-3.947.2-1.572.15-3.035-.18-4.346-.326-1.3-.93-2.418-1.797-3.356-.878-.948-2.063-1.757-3.52-2.403-1.478-.653-3.542-1.16-6.137-1.507l-8.186-1.093zm95.28 62.72c-.326 1.234-.654 2.26-.984 3.075s-.672 1.474-1.03 1.973-.73.83-1.113.993a1.83 1.83 0 0 1-1.213.076l-37.758-9.978c-1.402-.37-2.473-1.083-3.217-2.138s-.877-2.487-.396-4.298l19.166-72.53a1.78 1.78 0 0 1 .707-1c.363-.256.9-.402 1.582-.44s1.594.025 2.7.188 2.48.456 4.092.883l4.027 1.263c1.027.403 1.834.792 2.416 1.166s.967.763 1.156 1.164.23.8.12 1.22l-16.98 64.258 25.914 6.85c.424.112.766.324 1.025.634s.426.75.502 1.32.055 1.292-.06 2.163-.337 1.924-.663 3.16z"/><path d="M1155.72 466.558a2.48 2.48 0 0 1-.637-.085l-37.758-9.978c-1.5-.398-2.687-1.184-3.497-2.332-.83-1.178-1-2.764-.472-4.716l19.166-72.53c.14-.526.443-.958.9-1.28.442-.313 1.045-.487 1.844-.532.723-.04 1.664.026 2.8.192 1.126.164 2.52.465 4.147.895l4.082 1.28c1.055.414 1.896.82 2.504 1.2.668.43 1.105.88 1.338 1.372.24.514.3 1.04.15 1.563l-16.85 63.773 25.43 6.72c.523.14.954.406 1.28.796.32.382.526.912.614 1.576.083.616.063 1.366-.06 2.295-.12.895-.348 1.978-.677 3.222-.33 1.25-.67 2.306-1.004 3.135-.342.85-.708 1.548-1.1 2.077-.412.572-.857.964-1.323 1.162a2.28 2.28 0 0 1-.897.183zm-20.017-90.464l-.382.01c-.595.032-1.04.15-1.32.35a1.25 1.25 0 0 0-.513.723l-19.166 72.53c-.438 1.652-.33 2.958.32 3.882.682.965 1.642 1.6 2.937 1.942l37.758 9.978c.316.084.606.066.9-.053.295-.125.6-.403.902-.825.334-.464.662-1.092.974-1.867.32-.8.645-1.806.965-3.017.318-1.203.537-2.246.652-3.098.1-.827.13-1.5.06-2.03-.063-.474-.194-.832-.4-1.065s-.445-.386-.77-.472l-26.397-6.977 17.106-64.74c.08-.296.05-.584-.1-.882-.147-.312-.476-.634-.974-.955-.55-.354-1.335-.73-2.328-1.12-1.014-.396-2.35-.815-3.973-1.244l-4.036-.872c-.878-.128-1.628-.193-2.228-.193zm78.747 105.61c-.453 1.148-.883 2.088-1.3 2.82s-.805 1.295-1.197 1.7-.783.64-1.176.737-.77.073-1.14-.072l-39.826-15.7c-1.348-.53-2.328-1.365-2.943-2.5s-.578-2.572.1-4.315l26.414-67c.686-1.74 1.64-2.817 2.865-3.228s2.508-.35 3.857.183l39.58 15.604c.367.145.654.373.863.684s.316.754.324 1.33-.086 1.27-.3 2.082-.537 1.813-1.006 3c-.438 1.1-.86 2.03-1.266 2.762s-.805 1.295-1.197 1.7-.773.645-1.145.75a1.69 1.69 0 0 1-1.11-.06l-28.3-11.162-7.4 18.77 23.957 9.445c.367.145.662.387.883.725s.342.776.367 1.313-.064 1.2-.266 2.022-.523 1.773-.96 2.882c-.453 1.148-.88 2.08-1.277 2.8s-.8 1.256-1.174 1.63-.768.6-1.152.678a1.96 1.96 0 0 1-1.13-.102l-23.957-9.444-8.545 21.68 28.55 11.256a1.85 1.85 0 0 1 .883.726c.22.34.338.786.355 1.342s-.076 1.24-.28 2.052-.53 1.8-.983 2.94z"/><path d="M1210.324 487.5a2.32 2.32 0 0 1-.858-.166l-39.825-15.7c-1.452-.572-2.53-1.5-3.2-2.726-.686-1.264-.657-2.857.084-4.737l26.414-67c.74-1.877 1.807-3.062 3.172-3.518 1.326-.445 2.745-.382 4.2.2l39.58 15.605a2.31 2.31 0 0 1 1.095.869c.263.396.4.934.4 1.602.01.617-.092 1.36-.304 2.2-.2.84-.556 1.87-1.026 3.063-.442 1.122-.878 2.07-1.293 2.82-.44.787-.857 1.375-1.28 1.8-.46.462-.906.75-1.363.878a2.19 2.19 0 0 1-1.43-.076l-27.84-10.976-7.034 17.84 23.492 9.26c.464.184.84.492 1.118.917.268.412.418.938.447 1.563.028.585-.063 1.294-.28 2.166-.207.828-.536 1.818-.98 2.944-.455 1.152-.895 2.1-1.307 2.85-.43.765-.842 1.335-1.26 1.745-.454.442-.926.715-1.403.8a2.48 2.48 0 0 1-1.41-.126l-23.5-9.262-8.18 20.75 28.086 11.073c.464.184.84.492 1.118.917.27.414.416.952.437 1.6.017.604-.082 1.34-.294 2.188-.2.84-.548 1.85-1.003 3.004-.457 1.16-.9 2.128-1.316 2.88-.434.78-.852 1.37-1.28 1.8-.455.46-.93.752-1.4.87a2.39 2.39 0 0 1-.585.073zm-12.422-93.14a4.62 4.62 0 0 0-1.474.242c-1.072.358-1.934 1.347-2.56 2.937l-26.414 67c-.627 1.592-.673 2.9-.135 3.894.563 1.038 1.442 1.78 2.688 2.27l39.826 15.7a1.33 1.33 0 0 0 .834.052c.302-.074.618-.277.94-.604.358-.36.733-.892 1.115-1.58.396-.712.82-1.642 1.262-2.76.438-1.112.763-2.08.962-2.88.2-.76.28-1.405.265-1.917-.015-.46-.106-.825-.274-1.083a1.34 1.34 0 0 0-.647-.533l-29.016-11.44 8.9-22.6 24.423 9.628a1.45 1.45 0 0 0 .847.076c.287-.06.6-.24.902-.546.345-.338.7-.848 1.087-1.518.4-.7.8-1.617 1.248-2.73.426-1.086.742-2.034.938-2.82.2-.766.274-1.397.252-1.878-.02-.445-.118-.803-.287-1.063a1.34 1.34 0 0 0-.647-.532l-24.422-9.628 7.767-19.7 28.772 11.343a1.19 1.19 0 0 0 .789.044c.285-.08.597-.3.927-.62.353-.354.728-.886 1.115-1.58.394-.7.8-1.62 1.237-2.7.454-1.152.786-2.14.985-2.938.2-.765.283-1.42.274-1.953-.01-.474-.087-.83-.24-1.06a1.3 1.3 0 0 0-.63-.494l-39.58-15.605c-.698-.277-1.385-.416-2.04-.416zm46.49 99.964c-1.805 3.523-3.652 5.566-5.543 6.13s-4.477.003-7.76-1.678-5.244-3.438-5.883-5.27-.107-4.417 1.6-7.75c1.82-3.562 3.68-5.624 5.57-6.187s4.496.007 7.818 1.708c3.244 1.66 5.186 3.406 5.826 5.24s.098 4.437-1.628 7.8z"/><path d="M1237.297 501.164c-1.75 0-3.916-.654-6.435-1.944-3.435-1.757-5.438-3.573-6.128-5.55-.693-1.986-.16-4.65 1.627-8.145 1.902-3.722 3.823-5.827 5.873-6.438 2-.597 4.755-.017 8.188 1.742 3.394 1.736 5.38 3.542 6.07 5.52.694 1.987.153 4.67-1.655 8.202-1.888 3.686-3.8 5.772-5.846 6.38a5.98 5.98 0 0 1-1.694.232zm-3.378-21.308a4.88 4.88 0 0 0-1.399.189c-1.748.52-3.52 2.517-5.268 5.935-1.635 3.192-2.163 5.668-1.573 7.358.593 1.7 2.5 3.38 5.64 5 3.14 1.607 5.638 2.163 7.4 1.644 1.745-.52 3.5-2.496 5.24-5.878 1.654-3.23 2.193-5.726 1.603-7.416-.595-1.7-2.473-3.37-5.582-4.96-2.415-1.236-4.45-1.863-6.05-1.863zm100.263 13.168c-2.53 3.9-5.395 6.924-8.596 9.108s-6.664 3.522-10.4 4.018-7.678.147-11.852-1.044-8.62-3.32-13.328-6.385l-5.963-3.878-14.377 22.104a1.74 1.74 0 0 1-.986.729c-.426.13-.97.105-1.64-.076s-1.498-.518-2.486-1.008-2.203-1.204-3.64-2.14c-1.4-.9-2.533-1.723-3.402-2.44s-1.52-1.345-1.957-1.883-.672-1.02-.705-1.45a1.82 1.82 0 0 1 .295-1.179l40.52-62.298c1.1-1.678 2.36-2.643 3.807-2.894s2.906.1 4.38 1.058l16.84 10.952a71.63 71.63 0 0 1 4.709 3.33c1.443 1.12 3.102 2.577 4.97 4.375s3.535 3.964 5.006 6.494 2.428 5.146 2.873 7.847.332 5.446-.332 8.24-1.913 5.6-3.747 8.42zm-15.844-8.858c1.578-2.427 2.438-4.7 2.574-6.856s-.193-4-.994-5.598-1.848-2.94-3.135-4.058a38.3 38.3 0 0 0-4.197-3.148l-6.186-4.022-15.28 23.496 6.514 4.236c2.32 1.5 4.457 2.47 6.416 2.88s3.8.396 5.492-.047 3.303-1.252 4.805-2.435 2.832-2.663 3.992-4.447z"/><path d="M1268.093 518.26c-.35 0-.744-.06-1.173-.176-.7-.188-1.543-.53-2.578-1.043-1.008-.5-2.25-1.23-3.688-2.167l-3.448-2.474c-.886-.73-1.568-1.4-2.026-1.953-.508-.626-.774-1.2-.815-1.727-.047-.534.08-1.037.374-1.5l40.52-62.297c1.163-1.8 2.557-2.84 4.14-3.114 1.562-.273 3.165.1 4.737 1.132l16.84 10.952 4.742 3.354c1.46 1.132 3.146 2.616 5.012 4.4 1.9 1.82 3.604 4.043 5.092 6.604 1.493 2.57 2.48 5.267 2.934 8.016s.338 5.6-.34 8.437c-.675 2.837-1.958 5.722-3.813 8.574-2.553 3.925-5.5 7.036-8.732 9.25-3.25 2.217-6.82 3.597-10.607 4.1-3.773.502-7.833.146-12.055-1.06-4.204-1.2-8.734-3.37-13.463-6.446l-5.544-3.604-14.104 21.685c-.297.456-.72.77-1.26.936a2.68 2.68 0 0 1-.746.101zm32.296-75.526a4.82 4.82 0 0 0-.82.071c-1.3.226-2.467 1.125-3.474 2.674l-40.52 62.298c-.173.265-.243.547-.216.863.025.327.226.722.596 1.178.416.513 1.052 1.122 1.887 1.812.855.706 1.984 1.516 3.356 2.407 1.407.916 2.615 1.626 3.6 2.1.96.478 1.767.805 2.394.973.57.154 1.03.182 1.362.082.313-.096.546-.268.714-.525l14.65-22.522 6.382 4.15c4.646 3.022 9.084 5.15 13.193 6.322 4.1 1.168 8.008 1.516 11.647 1.03 3.632-.483 7.056-1.808 10.175-3.936 3.133-2.138 5.98-5.154 8.46-8.968 1.793-2.756 3.03-5.535 3.68-8.26.646-2.716.755-5.422.325-8.042-.434-2.63-1.38-5.212-2.813-7.676-1.44-2.48-3.097-4.63-4.92-6.386-1.84-1.77-3.498-3.23-4.93-4.34a71.91 71.91 0 0 0-4.675-3.306l-16.84-10.952c-1.076-.7-2.152-1.054-3.198-1.054zm6.403 49.158h0c-.915 0-1.872-.104-2.846-.308-2.008-.42-4.224-1.412-6.586-2.95l-6.933-4.5 15.826-24.335 6.604 4.296a38.83 38.83 0 0 1 4.252 3.19c1.33 1.156 2.426 2.572 3.254 4.2.84 1.662 1.2 3.632 1.047 5.855s-1.034 4.606-2.654 7.097c-1.186 1.823-2.565 3.36-4.103 4.568-1.548 1.22-3.227 2.068-4.987 2.525-.918.24-1.886.36-2.874.36zm-14.98-8.058l6.095 3.964c2.26 1.47 4.36 2.413 6.246 2.8a12.92 12.92 0 0 0 2.64.286h0c.904 0 1.786-.1 2.623-.327 1.627-.423 3.182-1.2 4.62-2.344 1.45-1.14 2.757-2.596 3.883-4.327 1.524-2.345 2.364-4.57 2.494-6.615s-.185-3.84-.94-5.342c-.77-1.52-1.784-2.834-3.017-3.904-1.268-1.1-2.66-2.144-4.142-3.107l-5.767-3.75zM1360 587.756c-.3.353-.635.6-.977.715s-.832.05-1.467-.224-1.46-.8-2.475-1.574l-3.998-3.332-3.234-3.005c-.77-.787-1.316-1.48-1.64-2.073s-.467-1.116-.426-1.563.16-.92.365-1.418l6.414-18.913 1.63-5.957c.404-1.795.56-3.456.467-4.98a10.69 10.69 0 0 0-1.18-4.301c-.7-1.343-1.73-2.62-3.117-3.836l-4.063-3.56-20.742 23.676a1.74 1.74 0 0 1-1.08.582c-.44.068-.975-.035-1.6-.3s-1.408-.726-2.318-1.352-2.008-1.506-3.297-2.634l-3.02-2.9c-.756-.834-1.314-1.547-1.668-2.142s-.52-1.105-.494-1.536a1.82 1.82 0 0 1 .461-1.124l49.436-56.427c1.232-1.408 2.496-2.1 3.785-2.073s2.48.518 3.57 1.473l16.596 14.54 4.076 3.742 2.762 2.844c2.268 2.6 4.055 5.25 5.363 7.922s2.066 5.335 2.283 7.986-.133 5.263-1.04 7.832-2.443 5.1-4.604 7.554c-1.824 2.082-3.758 3.74-5.803 4.975s-4.188 2.063-6.422 2.48-4.563.444-6.984.077-4.9-1.115-7.404-2.243a19.87 19.87 0 0 1 1.27 3.998c.28 1.38.395 2.85.338 4.413s-.268 3.218-.63 4.966-.877 3.632-1.54 5.653l-5.328 16.978-1.344 3.533c-.325.704-.63 1.218-.9 1.537zm20.148-56.876c1.793-2.05 2.83-4.197 3.105-6.445s-.422-4.615-2.098-7.1c-.52-.74-1.158-1.524-1.916-2.358s-1.88-1.902-3.367-3.204l-5.844-5.12-15.44 17.624 6.64 5.815c1.848 1.62 3.656 2.822 5.422 3.605s3.453 1.188 5.066 1.213 3.125-.304 4.54-.986 2.714-1.698 3.893-3.042z"/><path d="M1358.67 589.03c-.372 0-.798-.105-1.302-.323-.678-.293-1.52-.828-2.58-1.636l-4.023-3.354-3.263-3.03c-.797-.814-1.376-1.55-1.722-2.184-.372-.68-.535-1.3-.485-1.85.044-.494.18-1.02.4-1.562l6.403-18.884 1.615-5.907c.392-1.742.545-3.37.455-4.84-.1-1.45-.468-2.83-1.125-4.103-.66-1.28-1.67-2.522-3.002-3.7l-3.687-3.23-20.413 23.3a2.24 2.24 0 0 1-1.379.747c-.53.08-1.152-.027-1.886-.344-.662-.285-1.47-.756-2.404-1.398-.916-.632-2.04-1.53-3.343-2.67l-3.06-2.94c-.795-.877-1.36-1.604-1.728-2.224-.4-.686-.596-1.28-.563-1.82s.23-1.02.584-1.425l49.436-56.427c1.303-1.488 2.68-2.243 4.1-2.243 1.487.03 2.796.566 3.97 1.597l16.596 14.54 4.1 3.762 2.778 2.86c2.294 2.64 4.122 5.342 5.444 8.04 1.327 2.72 2.1 5.466 2.332 8.166s-.138 5.407-1.065 8.04c-.93 2.622-2.5 5.218-4.7 7.717-1.85 2.1-3.842 3.817-5.92 5.072-2.088 1.26-4.305 2.116-6.6 2.545s-4.687.454-7.15.08c-2.094-.317-4.246-.923-6.414-1.803a20.41 20.41 0 0 1 .845 2.964c.288 1.413.405 2.938.348 4.53-.058 1.58-.273 3.28-.642 5.05-.364 1.753-.887 3.674-1.553 5.708l-5.326 16.97-1.367 3.593c-.35.755-.673 1.297-.988 1.657-.36.413-.76.7-1.18.855-.162.06-.342.1-.535.1zm-12.408-56l4.438 3.9c1.428 1.25 2.516 2.6 3.232 3.983a11.21 11.21 0 0 1 1.234 4.499c.096 1.563-.064 3.285-.48 5.12l-1.64 5.996-6.418 18.925c-.195.477-.306.904-.34 1.3-.032.348.092.777.366 1.28.303.555.827 1.215 1.56 1.964l3.206 2.98 3.973 3.312c.98.746 1.775 1.255 2.37 1.512.684.295.94.27 1.098.213.262-.096.52-.3.77-.574s.528-.76.832-1.418c.32-.7.768-1.872 1.325-3.486l5.323-16.964c.657-2.005 1.17-3.9 1.527-5.605s.565-3.358.62-4.883c.055-1.514-.056-2.958-.328-4.294s-.688-2.646-1.237-3.897l-.52-1.188 1.183.53c2.463 1.104 4.9 1.846 7.275 2.205 2.353.356 4.646.332 6.817-.075 2.166-.405 4.27-1.22 6.255-2.418s3.903-2.842 5.686-4.875c2.105-2.402 3.622-4.9 4.508-7.392.88-2.497 1.222-5.063 1.013-7.624-.2-2.575-.963-5.202-2.234-7.808-1.283-2.62-3.063-5.25-5.3-7.813l-2.735-2.816-4.055-3.722-16.596-14.54c-1.008-.883-2.07-1.324-3.252-1.35h-.001c-1.17 0-2.293.64-3.397 1.902l-49.436 56.427a1.31 1.31 0 0 0-.338.824c-.02.327.123.748.424 1.25.33.555.87 1.248 1.6 2.063.732.807 1.735 1.77 2.98 2.86l3.25 2.598c.88.606 1.63 1.045 2.232 1.305.54.233.983.327 1.337.273a1.25 1.25 0 0 0 .78-.418zm25.635 2.38h0-.18c-1.673-.026-3.442-.45-5.262-1.256-1.806-.802-3.673-2.042-5.55-3.687l-7.015-6.146 16.1-18.375 6.22 5.45 3.408 3.243a25.3 25.3 0 0 1 1.954 2.407c1.744 2.586 2.477 5.1 2.186 7.45-.286 2.336-1.37 4.595-3.226 6.714-1.22 1.4-2.582 2.454-4.05 3.163a10.44 10.44 0 0 1-4.585 1.04zm-16.593-11.183l6.262 5.486c1.8 1.578 3.582 2.764 5.296 3.524 1.695.752 3.334 1.146 4.87 1.17l.165.002c1.463 0 2.86-.316 4.15-.938 1.347-.65 2.604-1.634 3.733-2.922 1.72-1.965 2.724-4.043 2.985-6.176.26-2.115-.418-4.4-2.017-6.76a24.49 24.49 0 0 0-1.871-2.302c-.74-.814-1.86-1.88-3.326-3.164l-5.468-4.8zM1403 630.822c-.936.807-1.752 1.44-2.45 1.9s-1.316.773-1.846.942-.992.204-1.383.107-.72-.294-.977-.593l-27.992-32.388c-.95-1.097-1.432-2.3-1.45-3.58s.682-2.547 2.098-3.772l54.488-47.093c1.416-1.224 2.764-1.734 4.037-1.53s2.383.854 3.33 1.95l27.82 32.188c.26.3.408.635.447 1.006s-.068.814-.326 1.33-.668 1.084-1.225 1.7-1.316 1.355-2.283 2.2c-.902.78-1.703 1.4-2.4 1.86s-1.316.772-1.846.94-.986.213-1.363.133a1.72 1.72 0 0 1-.955-.566l-19.895-23.02-15.264 13.192 16.838 19.483a1.84 1.84 0 0 1 .445 1.052c.037.402-.06.846-.283 1.332-.23.486-.62 1.042-1.174 1.67s-1.285 1.328-2.188 2.106c-.934.808-1.742 1.434-2.426 1.88s-1.283.746-1.797.9-.96.177-1.336.066-.693-.314-.95-.613l-16.84-19.483-17.63 15.238 20.07 23.22c.258.3.404.65.443 1.053s-.064.853-.307 1.353-.643 1.063-1.197 1.7-1.3 1.345-2.233 2.152z"/><path d="M1397.776 634.324a2.42 2.42 0 0 1-.574-.067 2.32 2.32 0 0 1-1.235-.751l-28-32.388c-1.023-1.183-1.552-2.495-1.57-3.9-.02-1.438.744-2.837 2.27-4.157l54.488-47.093c1.527-1.32 3.035-1.87 4.443-1.645 1.387.223 2.607.935 3.63 2.117l27.82 32.188c.326.376.517.807.566 1.28s-.07.996-.376 1.604c-.284.558-.72 1.168-1.298 1.818-.567.64-1.352 1.392-2.33 2.237-.9.786-1.735 1.425-2.452 1.897-.737.483-1.4.82-1.97 1-.614.194-1.156.242-1.618.146a2.21 2.21 0 0 1-1.23-.728l-19.57-22.645-14.507 12.54 16.5 19.104a2.34 2.34 0 0 1 .565 1.33c.045.5-.065 1.023-.327 1.6-.253.538-.663 1.123-1.254 1.8-.574.646-1.326 1.37-2.234 2.154-.943.815-1.777 1.462-2.48 1.92-.736.48-1.366.792-1.927.96-.6.183-1.15.204-1.62.066a2.46 2.46 0 0 1-1.19-.767l-16.513-19.104-16.874 14.585 19.743 22.84c.324.377.514.824.563 1.33.047.5-.072 1.036-.354 1.62-.268.548-.684 1.138-1.273 1.803-.578.648-1.346 1.387-2.283 2.197-.946.815-1.788 1.468-2.5 1.938-.735.482-1.397.818-1.97 1a3.54 3.54 0 0 1-1.081.188zm29.2-89.052c-.98 0-2.043.488-3.157 1.452l-54.488 47.093c-1.293 1.118-1.94 2.258-1.925 3.387.016 1.18.45 2.246 1.327 3.26l27.992 32.388a1.32 1.32 0 0 0 .717.434c.3.075.674.04 1.114-.1.483-.153 1.063-.45 1.722-.883.677-.446 1.483-1.072 2.397-1.86.904-.78 1.64-1.5 2.2-2.104.52-.588.897-1.118 1.12-1.575.2-.415.288-.78.258-1.086s-.135-.555-.324-.774l-20.396-23.597 18.388-15.893 17.166 19.86c.196.228.43.378.713.46s.633.06 1.054-.064c.46-.14 1.022-.42 1.667-.84.664-.434 1.462-1.053 2.37-1.84.876-.756 1.597-1.45 2.142-2.062.518-.585.887-1.106 1.095-1.55.186-.402.266-.765.237-1.073-.028-.297-.136-.55-.326-.77l-17.164-19.86 16.02-13.847 20.22 23.4a1.2 1.2 0 0 0 .681.404c.288.062.667.02 1.1-.12.483-.153 1.063-.45 1.722-.882.68-.45 1.47-1.062 2.348-1.82.946-.817 1.698-1.54 2.236-2.145.52-.587.9-1.127 1.153-1.605.212-.422.305-.775.274-1.047s-.136-.512-.328-.732l-27.82-32.2c-.864-1-1.884-1.6-3.03-1.784a2.94 2.94 0 0 0-.476-.039zm26.3 127.368c-3.615 2.403-7.25 3.818-10.902 4.244s-7.182.058-10.588-1.105-6.627-3.027-9.664-5.596-5.758-5.66-8.166-9.28c-1.63-2.45-2.947-4.855-3.953-7.216s-1.773-4.53-2.293-6.504-.84-3.7-.955-5.18-.1-2.6.047-3.4.582-1.563 1.318-2.34 1.918-1.7 3.547-2.794c1.098-.73 2.045-1.308 2.838-1.73s1.475-.703 2.045-.845 1.043-.14 1.422.004.686.4.93.765c.34.512.527 1.43.564 2.75s.184 2.948.447 4.883.777 4.1 1.543 6.527 2.033 4.96 3.8 7.63c1.166 1.755 2.416 3.2 3.748 4.3s2.7 1.913 4.078 2.388a8.85 8.85 0 0 0 4.244.383c1.44-.217 2.83-.776 4.178-1.672 1.56-1.037 2.605-2.366 3.14-3.985s.764-3.423.697-5.407-.316-4.127-.744-6.425l-1.266-7.148a61.05 61.05 0 0 1-.785-7.465c-.1-2.5.117-4.97.7-7.38s1.592-4.735 3.063-6.98 3.643-4.32 6.516-6.23c3.297-2.2 6.6-3.488 9.95-3.9s6.54-.08 9.6.964 5.98 2.747 8.73 5.1 5.203 5.174 7.367 8.428a41.36 41.36 0 0 1 2.984 5.293c.87 1.847 1.578 3.643 2.127 5.388s.932 3.36 1.152 4.85.277 2.53.166 3.132-.248 1.05-.4 1.342-.418.62-.766.983-.818.768-1.414 1.217-1.354.98-2.275 1.593c-1.03.684-1.916 1.233-2.66 1.65s-1.4.714-1.936.893-1.006.22-1.375.123-.7-.346-.96-.747-.443-1.207-.53-2.415-.264-2.646-.53-4.313-.72-3.503-1.36-5.503-1.63-4.006-2.965-6.017c-1.045-1.572-2.143-2.82-3.293-3.74s-2.314-1.56-3.494-1.908a7.35 7.35 0 0 0-3.53-.182c-1.175.228-2.28.686-3.307 1.368-1.525 1.014-2.56 2.32-3.105 3.923s-.77 3.412-.678 5.435.363 4.2.818 6.534l1.3 7.203a66.97 66.97 0 0 1 .822 7.52c.134 2.546-.078 5.034-.635 7.46s-1.564 4.758-3.02 7-3.565 4.265-6.328 6.104z"/><path d="M1439.453 677.554a24.21 24.21 0 0 1-7.839-1.303c-3.45-1.178-6.756-3.092-9.826-5.688-3.06-2.588-5.838-5.746-8.26-9.386-1.64-2.465-2.984-4.92-3.997-7.298-1.017-2.384-1.796-4.595-2.316-6.57-.526-1.994-.854-3.767-.97-5.27-.12-1.546-.102-2.697.054-3.522.16-.873.646-1.746 1.446-2.592.765-.8 1.953-1.748 3.633-2.866 1.107-.737 2.076-1.327 2.88-1.755.82-.438 1.548-.736 2.158-.9.67-.166 1.247-.16 1.72.022s.867.504 1.168.954c.396.597.608 1.582.648 3.013.032 1.287.18 2.9.442 4.83.256 1.9.77 4.058 1.524 6.443.746 2.36 2.007 4.887 3.748 7.505 1.134 1.705 2.362 3.12 3.653 4.204 1.275 1.072 2.594 1.845 3.918 2.297a8.42 8.42 0 0 0 4.008.362c1.358-.207 2.696-.743 3.977-1.594 1.456-.97 2.445-2.224 2.94-3.726.5-1.55.736-3.313.672-5.234-.066-1.95-.314-4.088-.735-6.35l-1.268-7.156a62.09 62.09 0 0 1-.792-7.526 27.34 27.34 0 0 1 .703-7.517c.58-2.452 1.634-4.854 3.13-7.14 1.505-2.293 3.744-4.438 6.657-6.373 3.348-2.226 6.77-3.56 10.166-3.968s6.705-.075 9.832.986c3.115 1.058 6.107 2.8 8.894 5.205 2.77 2.383 5.278 5.253 7.457 8.53a42.01 42.01 0 0 1 3.021 5.355 43.31 43.31 0 0 1 2.151 5.452c.554 1.766.947 3.422 1.17 4.925.233 1.553.286 2.632.163 3.296s-.273 1.15-.464 1.493c-.188.335-.47.7-.843 1.087s-.864.812-1.474 1.27a42.94 42.94 0 0 1-2.3 1.6c-1.034.687-1.94 1.248-2.693 1.67-.77.43-1.452.744-2.024.93-.64.208-1.196.25-1.655.132-.493-.128-.914-.45-1.25-.953-.322-.486-.518-1.33-.614-2.656-.087-1.202-.265-2.64-.526-4.27s-.7-3.463-1.342-5.43c-.62-1.942-1.598-3.925-2.904-5.892-1.012-1.52-2.085-2.743-3.2-3.63-1.094-.877-2.212-1.488-3.324-1.818-1.095-.326-2.2-.383-3.293-.17-1.105.215-2.157.65-3.126 1.294-1.422.945-2.4 2.18-2.908 3.668-.523 1.535-.742 3.302-.652 5.25.1 1.984.36 4.158.8 6.462l1.303 7.216c.415 2.484.694 5.034.828 7.577a27.45 27.45 0 0 1-.646 7.6c-.57 2.475-1.608 4.88-3.088 7.152-1.484 2.278-3.66 4.38-6.47 6.25-3.665 2.437-7.407 3.892-11.122 4.325a24.89 24.89 0 0 1-2.97.178zm-22.138-46.258c-.193 0-.414.03-.656.1-.53.132-1.18.4-1.93.8-.775.412-1.717.985-2.796 1.704-1.594 1.06-2.758 1.977-3.46 2.72-.665.704-1.065 1.406-1.2 2.088-.137.73-.15 1.826-.04 3.263s.43 3.154.94 5.1 1.27 4.096 2.27 6.436c1 2.32 2.305 4.722 3.9 7.136 2.37 3.562 5.086 6.648 8.073 9.176 2.974 2.515 6.17 4.367 9.502 5.505 3.32 1.133 6.804 1.495 10.37 1.082 3.557-.415 7.15-1.816 10.684-4.165 2.694-1.793 4.775-3.8 6.186-5.963 1.416-2.173 2.408-4.47 2.95-6.83a26.49 26.49 0 0 0 .623-7.322 67 67 0 0 0-.816-7.465l-1.3-7.2c-.458-2.352-.736-4.574-.827-6.607-.096-2.072.142-3.963.704-5.617.582-1.703 1.692-3.108 3.303-4.18 1.08-.717 2.252-1.202 3.487-1.442 1.252-.243 2.522-.18 3.77.193 1.237.367 2.47 1.04 3.664 1.997 1.186.95 2.328 2.248 3.396 3.855 1.36 2.044 2.377 4.1 3.025 6.14.646 2.015 1.108 3.892 1.377 5.576.266 1.66.446 3.125.536 4.356.106 1.463.327 2 .45 2.175.198.297.417.474.668.54.27.07.646.03 1.095-.114.5-.167 1.13-.454 1.846-.854.73-.4 1.615-.958 2.628-1.63.9-.6 1.66-1.13 2.25-1.576.567-.428 1.022-.82 1.354-1.164.313-.326.545-.623.7-.88.092-.166.23-.5.355-1.188.07-.376.097-1.195-.17-2.967-.216-1.452-.598-3.058-1.136-4.773s-1.247-3.508-2.102-5.324a41.37 41.37 0 0 0-2.948-5.23c-2.13-3.2-4.577-6.002-7.277-8.326-2.688-2.312-5.57-4-8.563-5.016-2.985-1.015-6.143-1.33-9.4-.94-3.24.4-6.516 1.67-9.732 3.808-2.8 1.86-4.943 3.9-6.374 6.1-1.433 2.188-2.44 4.482-2.994 6.82-.558 2.35-.785 4.785-.676 7.242a60.62 60.62 0 0 0 .778 7.404l1.264 7.14c.43 2.313.684 4.5.753 6.5.068 2.04-.175 3.918-.723 5.58-.566 1.72-1.688 3.148-3.336 4.245-1.403.933-2.877 1.52-4.38 1.75a9.38 9.38 0 0 1-4.48-.404c-1.442-.492-2.868-1.326-4.238-2.478-1.364-1.146-2.657-2.632-3.843-4.416-1.794-2.696-3.096-5.307-3.87-7.757-.773-2.44-1.3-4.665-1.562-6.6-.267-1.954-.42-3.615-.452-4.937-.043-1.52-.285-2.2-.48-2.486-.185-.277-.412-.466-.693-.574a1.26 1.26 0 0 0-.465-.08zm64.87 98.704c-3.9 1.92-7.678 2.858-11.355 2.813s-7.13-.863-10.36-2.45-6.184-3.852-8.867-6.788-4.986-6.352-6.908-10.25c-1.303-2.638-2.303-5.192-3-7.663s-1.18-4.72-1.44-6.743-.36-3.778-.283-5.26.236-2.6.48-3.357.78-1.475 1.607-2.152 2.12-1.45 3.877-2.316c1.182-.584 2.195-1.035 3.035-1.352s1.55-.5 2.137-.577 1.053-.006 1.408.187.63.484.824.878c.273.55.34 1.484.207 2.8s-.195 2.948-.18 4.9.244 4.176.693 6.672 1.383 5.18 2.8 8.055c.932 1.9 1.988 3.475 3.164 4.754s2.424 2.243 3.742 2.892 2.7.955 4.156.923 2.908-.406 4.36-1.123c1.68-.83 2.887-2.013 3.623-3.55s1.197-3.297 1.385-5.273.215-4.134.084-6.468l-.34-7.25a60.87 60.87 0 0 1 .176-7.504 26.7 26.7 0 0 1 1.629-7.23c.873-2.317 2.186-4.493 3.932-6.53s4.168-3.82 7.26-5.345c3.55-1.752 7.004-2.612 10.367-2.583s6.496.76 9.408 2.187 5.578 3.5 8.002 6.187 4.498 5.797 6.23 9.302a41.6 41.6 0 0 1 2.279 5.631c.627 1.942 1.1 3.814 1.42 5.615s.494 3.453.523 4.957-.05 2.545-.236 3.128-.383 1.007-.58 1.277-.494.562-.885.877-.9.657-1.557 1.026a50.79 50.79 0 0 1-2.463 1.288c-1.107.547-2.057.98-2.85 1.296s-1.47.53-2.035.637-1.023.1-1.38-.053-.64-.432-.854-.864-.285-1.254-.217-2.463.076-2.657.025-4.347-.266-3.566-.643-5.63-1.104-4.182-2.172-6.346c-.836-1.694-1.764-3.072-2.787-4.134s-2.098-1.842-3.22-2.34a7.32 7.32 0 0 0-3.479-.633c-1.197.077-2.35.388-3.455.935-1.643.8-2.836 1.974-3.582 3.492s-1.2 3.286-1.37 5.304-.176 4.212-.025 6.586l.37 7.3a67.2 67.2 0 0 1-.146 7.564 26.91 26.91 0 0 1-1.586 7.32c-.863 2.338-2.162 4.518-3.9 6.546s-4.078 3.775-7.056 5.244z"/><path d="M1471.085 733.315l-.26-.002c-3.735-.047-7.293-.89-10.574-2.503-3.27-1.6-6.303-3.932-9.016-6.898-2.705-2.96-5.056-6.448-6.987-10.366-1.3-2.653-2.33-5.26-3.033-7.75-.704-2.498-1.194-4.79-1.456-6.815-.267-2.052-.363-3.852-.286-5.35.08-1.54.244-2.68.504-3.485.27-.845.864-1.647 1.767-2.386.854-.7 2.2-1.5 3.973-2.378 1.193-.6 2.23-1.052 3.08-1.37.885-.335 1.623-.533 2.256-.605.69-.08 1.258.002 1.702.242a2.44 2.44 0 0 1 1.036 1.098c.315.637.4 1.642.255 3.07-.133 1.297-.192 2.927-.177 4.845.012 1.908.242 4.124.686 6.587.436 2.433 1.363 5.098 2.757 7.923.903 1.833 1.94 3.393 3.084 4.637 1.13 1.228 2.34 2.164 3.595 2.78 1.18.58 2.432.873 3.727.873l.197-.002c1.376-.03 2.77-.39 4.15-1.07 1.568-.773 2.7-1.89 3.394-3.318.707-1.477 1.157-3.193 1.338-5.105.184-1.95.21-4.103.083-6.392l-.34-7.26c-.096-2.508-.036-5.053.178-7.565.214-2.538.77-5.016 1.66-7.364.888-2.354 2.24-4.603 4.02-6.68s4.28-3.92 7.418-5.468c3.542-1.75 7.048-2.636 10.42-2.636l.174.001c3.42.03 6.658.784 9.623 2.237 2.954 1.448 5.697 3.568 8.154 6.302 2.44 2.72 4.563 5.887 6.305 9.414.898 1.823 1.675 3.74 2.307 5.7.63 1.95 1.113 3.86 1.437 5.682s.502 3.52.53 5.034c.03 1.568-.055 2.645-.26 3.29-.205.636-.418 1.1-.653 1.42-.23.3-.547.626-.975.97-.408.33-.954.7-1.622 1.07s-1.508.818-2.49 1.303c-1.12.552-2.09.993-2.886 1.313-.813.327-1.53.55-2.128.663-.655.124-1.212.098-1.657-.08-.473-.192-.847-.564-1.116-1.106-.258-.525-.343-1.387-.268-2.713.066-1.203.074-2.65.024-4.303s-.263-3.522-.635-5.557c-.368-2-1.084-4.1-2.128-6.215-.81-1.643-1.72-2.99-2.7-4.007-.973-1-2.003-1.76-3.063-2.23-1.044-.464-2.143-.66-3.243-.59-1.127.072-2.226.37-3.266.884-1.533.756-2.662 1.854-3.354 3.265-.714 1.452-1.158 3.177-1.32 5.125-.165 1.978-.173 4.17-.024 6.512l.37 7.322c.094 2.506.044 5.07-.147 7.62a27.53 27.53 0 0 1-1.616 7.454c-.88 2.38-2.22 4.634-3.98 6.697-1.766 2.07-4.194 3.88-7.218 5.37-3.856 1.9-7.666 2.864-11.326 2.864zm-19.545-48.94c-.118 0-.243.008-.375.023-.542.063-1.22.246-2.018.548-.82.31-1.825.757-3 1.332-1.714.845-2.986 1.604-3.782 2.255-.75.614-1.236 1.26-1.447 1.918-.23.713-.384 1.8-.458 3.23-.073 1.437.02 3.176.28 5.17.255 1.976.735 4.22 1.427 6.672.686 2.43 1.684 4.98 2.967 7.578 1.89 3.833 4.188 7.243 6.83 10.134 2.628 2.875 5.562 5.12 8.72 6.676 3.146 1.55 6.56 2.355 10.145 2.4l.25.002c3.506 0 7.166-.93 10.88-2.763 2.902-1.432 5.224-3.155 6.9-5.123 1.683-1.975 2.962-4.126 3.803-6.396.844-2.284 1.367-4.7 1.556-7.184.19-2.513.238-5.038.146-7.508l-.368-7.296c-.15-2.392-.143-4.632.026-6.658.173-2.073.65-3.918 1.418-5.483.793-1.612 2.074-2.864 3.81-3.72 1.158-.573 2.385-.904 3.644-.985a7.85 7.85 0 0 1 3.714.675c1.18.522 2.315 1.347 3.378 2.45 1.05 1.09 2.02 2.523 2.875 4.26 1.085 2.197 1.83 4.377 2.216 6.478.38 2.084.6 4.004.65 5.706.05 1.68.042 3.156-.026 4.39-.083 1.464.07 2.016.167 2.215.158.32.353.523.593.622.26.102.646.11 1.098.024.533-.1 1.187-.306 1.94-.61.773-.3 1.72-.74 2.814-1.28.966-.477 1.785-.905 2.438-1.275.62-.354 1.122-.685 1.49-.98.354-.286.623-.55.796-.785.114-.156.297-.48.507-1.133.115-.364.247-1.175.212-2.965-.028-1.463-.202-3.104-.516-4.88s-.788-3.642-1.403-5.55c-.617-1.912-1.375-3.784-2.252-5.563-1.7-3.445-3.77-6.537-6.152-9.188-2.37-2.638-5.012-4.68-7.85-6.07-2.83-1.387-5.924-2.105-9.193-2.136l-.164-.001c-3.218 0-6.574.853-9.977 2.532-3.017 1.488-5.406 3.246-7.102 5.223-1.704 1.988-2.997 4.135-3.844 6.382a26.34 26.34 0 0 0-1.599 7.096c-.2 2.472-.27 4.976-.174 7.443l.34 7.24c.132 2.34.103 4.54-.085 6.543-.192 2.03-.675 3.86-1.432 5.442-.783 1.635-2.08 2.908-3.853 3.783-1.51.746-3.048 1.14-4.57 1.175l-.22.002a9.36 9.36 0 0 1-4.168-.976c-1.366-.672-2.675-1.683-3.9-3.002-1.207-1.314-2.3-2.953-3.244-4.87-1.436-2.91-2.393-5.664-2.845-8.188s-.69-4.793-.7-6.757c-.016-1.953.046-3.62.183-4.953.153-1.517-.001-2.21-.158-2.526-.147-.3-.35-.516-.614-.66-.187-.102-.435-.154-.738-.154z"/></g><g fill="#fff"><path d="M512.72 976.578c.773 2.32 1.257 4.158 1.45 5.512s-.064 2.368-.773 3.045-1.967 1.096-3.77 1.257-4.287.24-7.444.24c-3.287 0-5.85-.048-7.686-.145s-3.24-.3-4.206-.58-1.644-.69-2.03-1.21-.7-1.19-.967-2.03l-8.41-25.137h-46.986l-7.928 24.46c-.258.904-.597 1.66-1.015 2.272s-1.097 1.097-2.03 1.45-2.257.596-3.964.725l-6.72.193c-2.965 0-5.285-.096-6.96-.29s-2.837-.66-3.48-1.402-.87-1.79-.677-3.143.677-3.156 1.45-5.414l38.575-110.987c.387-1.096.837-1.982 1.354-2.66s1.337-1.19 2.466-1.547 2.7-.58 4.688-.677l7.928-.145 9.088.145c2.256.097 4.013.323 5.27.677s2.158.887 2.707 1.596 1.015 1.677 1.4 2.9zM455.29 884.83h-.097l-17.692 53.174h35.48z"/><path d="M502.18 987.132c-3.286 0-5.88-.05-7.712-.146-1.895-.1-3.31-.296-4.323-.6-1.084-.325-1.832-.78-2.287-1.39-.42-.56-.772-1.294-1.044-2.182l-8.293-24.783H432.26l-7.816 24.113c-.266.932-.63 1.745-1.078 2.4-.477.696-1.24 1.247-2.266 1.636-.978.37-2.358.624-4.104.756l-6.757.194c-2.976 0-5.337-.1-7.018-.292-1.823-.21-3.066-.725-3.802-1.572s-1.008-2.04-.794-3.54c.197-1.375.692-3.228 1.473-5.506l38.576-110.99c.404-1.146.884-2.086 1.428-2.798.576-.757 1.49-1.336 2.713-1.72 1.166-.366 2.786-.602 4.814-.7l7.952-.146 9.11.146c2.28.098 4.09.33 5.383.694 1.356.384 2.354.98 2.968 1.77.582.757 1.08 1.784 1.482 3.056L513.2 976.41c.78 2.345 1.276 4.23 1.473 5.606.217 1.515-.094 2.685-.923 3.477-.802.765-2.134 1.22-4.07 1.394-1.818.162-4.338.244-7.488.244zm-70.65-30.1h47.7l8.525 25.48c.242.788.54 1.42.893 1.887.318.427.915.773 1.773 1.03.925.277 2.3.465 4.09.56l7.66.144 7.4-.24c1.68-.15 2.847-.527 3.47-1.12.6-.563.794-1.418.623-2.612-.188-1.318-.67-3.144-1.43-5.424l-38.67-110.885c-.37-1.174-.815-2.098-1.326-2.76-.48-.618-1.302-1.096-2.446-1.42-1.218-.343-2.952-.564-5.155-.658l-9.066-.145-7.903.145c-1.943.094-3.48.313-4.563.654-1.022.32-1.77.783-2.217 1.372-.48.63-.91 1.48-1.28 2.522L401.044 976.55c-.76 2.217-1.24 4.008-1.428 5.32-.17 1.2.017 2.122.56 2.744.557.64 1.62 1.056 3.16 1.233 1.643.2 3.966.286 6.903.286l6.682-.192c1.65-.124 2.937-.357 3.825-.693.83-.314 1.436-.74 1.794-1.265.387-.566.706-1.282.947-2.128zm42.146-18.53H436.81l18.025-54.174h.817l.114.342zm-35.482-1H472.3l-17.047-51.235z"/><use xlink:href="#B"/><path d="M577.688 988.583c-8.592 0-16.46-1.345-23.382-3.998-6.937-2.656-12.92-6.685-17.785-11.97s-8.64-11.965-11.225-19.858c-2.583-7.874-3.893-17.164-3.893-27.61 0-10.643 1.44-20.228 4.28-28.5 2.845-8.276 6.88-15.328 11.994-20.96 5.117-5.637 11.343-9.974 18.503-12.89 7.147-2.912 15.132-4.388 23.73-4.388 3.493 0 6.905.295 10.144.878 3.225.58 6.258 1.35 9.016 2.29 2.752.94 5.27 2.04 7.48 3.275 2.255 1.26 3.793 2.316 4.702 3.225s1.52 1.657 1.87 2.286c.346.622.623 1.416.826 2.36.197.92.347 2.017.444 3.256.098 1.233.146 2.775.146 4.584 0 1.935-.065 3.61-.195 4.978-.134 1.396-.372 2.546-.708 3.42-.356.926-.782 1.592-1.3 2.037-1.4 1.188-3.247.888-5.85-1.093-1.462-1.11-3.38-2.37-5.703-3.738-2.314-1.36-5.113-2.616-8.32-3.73-3.2-1.104-7.055-1.664-11.486-1.664-4.858 0-9.254 1.006-13.063 2.988s-7.104 4.862-9.784 8.552c-2.7 3.703-4.763 8.25-6.157 13.515-1.4 5.282-2.1 11.32-2.1 17.95 0 7.27.76 13.648 2.254 18.958 1.487 5.3 3.636 9.703 6.385 13.116 2.74 3.4 6.09 5.97 9.96 7.637 3.882 1.673 8.32 2.52 13.192 2.52 4.44 0 8.323-.528 11.545-1.57 3.24-1.05 6.058-2.224 8.373-3.49 2.327-1.275 4.265-2.438 5.76-3.455 1.613-1.1 2.86-1.634 3.8-1.634.742 0 1.356.158 1.824.47.486.324.866.914 1.164 1.805.268.806.47 1.933.604 3.35.13 1.4.195 3.287.195 5.605 0 1.62-.05 3.017-.146 4.152-.1 1.148-.25 2.15-.447 2.975-.202.843-.48 1.584-.822 2.203s-.892 1.32-1.623 2.086c-.75.782-2.13 1.744-4.222 2.94-2.046 1.17-4.577 2.304-7.522 3.37s-6.354 1.97-10.133 2.68c-3.787.71-7.934 1.072-12.323 1.072zm2.223-129.164c-8.468 0-16.325 1.45-23.353 4.313-7.02 2.858-13.123 7.11-18.14 12.635-5.022 5.53-8.988 12.466-11.79 20.612-2.805 8.157-4.227 17.634-4.227 28.165 0 10.342 1.293 19.526 3.843 27.3 2.54 7.757 6.246 14.314 11.01 19.492 4.76 5.173 10.615 9.113 17.406 11.715 6.81 2.608 14.555 3.932 23.024 3.932 4.328 0 8.412-.355 12.138-1.056s7.083-1.588 9.977-2.637 5.37-2.16 7.367-3.3c1.98-1.13 3.323-2.06 3.995-2.763s1.168-1.336 1.472-1.88.543-1.196.724-1.95c.188-.777.33-1.73.424-2.827.095-1.107.143-2.476.143-4.066 0-2.287-.064-4.143-.19-5.513-.125-1.34-.313-2.393-.557-3.127-.275-.824-.57-1.155-.77-1.288-.3-.2-.73-.303-1.27-.303-.504 0-1.476.253-3.247 1.46-1.52 1.036-3.487 2.215-5.842 3.506-2.37 1.298-5.245 2.498-8.546 3.565-3.32 1.074-7.31 1.62-11.853 1.62-5.01 0-9.58-.876-13.588-2.603-4.02-1.73-7.5-4.398-10.343-7.928-2.835-3.52-5.045-8.052-6.57-13.472-1.52-5.398-2.29-11.868-2.29-19.23 0-6.716.722-12.842 2.144-18.207 1.427-5.385 3.552-10.044 6.315-13.847 2.77-3.816 6.18-6.794 10.13-8.85s8.503-3.102 13.524-3.102c4.543 0 8.518.578 11.813 1.72 3.27 1.135 6.13 2.417 8.5 3.813 2.356 1.39 4.31 2.67 5.802 3.804 2.135 1.625 3.563 2.012 4.593 1.13.385-.33.728-.88 1.02-1.637.303-.79.52-1.85.646-3.155.126-1.336.2-2.98.2-4.883 0-1.783-.048-3.3-.144-4.505-.094-1.196-.237-2.247-.425-3.125-.183-.85-.425-1.55-.722-2.086s-.874-1.233-1.705-2.064-2.34-1.86-4.483-3.06c-2.157-1.205-4.618-2.282-7.313-3.202-2.7-.924-5.694-1.682-8.87-2.253s-6.532-.86-9.966-.86z"/><use xlink:href="#B" x="104.801"/><path d="M682.488 988.583c-8.592 0-16.46-1.345-23.382-3.998-6.937-2.656-12.92-6.685-17.785-11.97s-8.64-11.965-11.225-19.858c-2.583-7.874-3.893-17.164-3.893-27.6 0-10.643 1.44-20.228 4.28-28.5 2.845-8.276 6.88-15.328 11.994-20.96s11.343-9.974 18.503-12.9c7.147-2.912 15.132-4.388 23.73-4.388 3.493 0 6.905.295 10.144.878 3.225.58 6.258 1.35 9.016 2.3 2.752.94 5.27 2.04 7.48 3.275 2.255 1.26 3.793 2.316 4.702 3.225s1.52 1.657 1.87 2.286c.346.622.623 1.416.826 2.36.197.92.347 2.017.444 3.256.098 1.233.146 2.775.146 4.584 0 1.935-.065 3.6-.195 4.978-.134 1.396-.372 2.546-.708 3.42-.356.926-.782 1.592-1.3 2.037-1.4 1.188-3.246.888-5.85-1.093-1.462-1.1-3.38-2.37-5.703-3.738-2.314-1.36-5.113-2.616-8.32-3.73-3.2-1.104-7.055-1.664-11.486-1.664-4.858 0-9.254 1.006-13.063 2.988s-7.104 4.862-9.784 8.552c-2.7 3.703-4.763 8.25-6.157 13.515-1.4 5.282-2.1 11.32-2.1 17.95 0 7.27.76 13.648 2.254 18.958 1.487 5.3 3.636 9.703 6.385 13.116 2.74 3.4 6.1 5.97 9.96 7.637 3.882 1.673 8.32 2.52 13.192 2.52 4.44 0 8.323-.528 11.545-1.57 3.24-1.05 6.058-2.224 8.373-3.5 2.327-1.275 4.265-2.438 5.76-3.455 1.613-1.1 2.86-1.634 3.8-1.634.742 0 1.356.158 1.824.47.486.324.866.914 1.164 1.805.268.806.47 1.933.604 3.35.13 1.4.195 3.287.195 5.605 0 1.62-.05 3.017-.146 4.152-.1 1.148-.25 2.15-.447 2.975-.202.843-.48 1.584-.822 2.203s-.892 1.32-1.623 2.086c-.75.782-2.13 1.744-4.222 2.94-2.046 1.17-4.577 2.304-7.522 3.37s-6.354 1.97-10.133 2.68c-3.787.7-7.933 1.072-12.323 1.072zm2.224-129.164c-8.468 0-16.325 1.45-23.353 4.313-7.02 2.858-13.123 7.1-18.14 12.635-5.022 5.53-8.988 12.466-11.8 20.612-2.805 8.157-4.227 17.634-4.227 28.165 0 10.342 1.293 19.526 3.843 27.3 2.54 7.757 6.246 14.314 11 19.492s10.615 9.113 17.406 11.715c6.8 2.608 14.555 3.932 23.024 3.932 4.328 0 8.412-.355 12.138-1.056s7.083-1.588 9.977-2.637 5.37-2.16 7.367-3.3c1.98-1.13 3.323-2.06 3.995-2.763s1.168-1.336 1.472-1.88.543-1.196.724-1.95c.188-.777.33-1.73.424-2.827.095-1.107.143-2.476.143-4.066 0-2.287-.064-4.143-.2-5.513-.125-1.34-.313-2.393-.557-3.127-.275-.824-.57-1.155-.77-1.288-.3-.2-.73-.303-1.27-.303-.504 0-1.476.253-3.247 1.46-1.52 1.036-3.487 2.215-5.842 3.506-2.37 1.298-5.245 2.498-8.546 3.565-3.32 1.074-7.3 1.62-11.853 1.62-5 0-9.58-.876-13.588-2.603-4.02-1.73-7.5-4.398-10.343-7.928-2.835-3.52-5.045-8.052-6.57-13.472-1.52-5.398-2.3-11.868-2.3-19.23 0-6.716.722-12.842 2.144-18.207 1.427-5.385 3.552-10.044 6.315-13.847 2.77-3.816 6.18-6.794 10.13-8.85s8.503-3.102 13.524-3.102c4.543 0 8.518.578 11.813 1.72 3.27 1.135 6.13 2.417 8.5 3.813 2.356 1.4 4.3 2.67 5.802 3.804 2.135 1.625 3.563 2.012 4.593 1.13.385-.33.728-.88 1.02-1.637.303-.8.52-1.85.646-3.155.126-1.336.2-2.98.2-4.883 0-1.783-.048-3.3-.144-4.505-.094-1.196-.237-2.247-.425-3.125-.183-.85-.425-1.55-.722-2.086s-.874-1.233-1.705-2.064-2.34-1.86-4.483-3.06c-2.157-1.205-4.618-2.282-7.313-3.202-2.7-.924-5.694-1.682-8.87-2.253s-6.532-.86-9.966-.86zm163.872 62.63c0 10.378-1.3 19.66-3.867 27.843s-6.414 15.13-11.505 20.835-11.393 10.055-18.9 13.052-16.194 4.496-26.056 4.496c-9.732 0-18.224-1.273-25.475-3.82s-13.294-6.43-18.128-11.65-8.46-11.86-10.876-19.916-3.626-17.596-3.626-28.617c0-10.118 1.3-19.223 3.867-27.313s6.413-14.97 11.505-20.64 11.392-10.02 18.9-13.052 16.226-4.544 26.15-4.544c9.475 0 17.838 1.257 25.1 3.77s13.3 6.38 18.176 11.602 8.54 11.812 11.02 19.77 3.723 17.353 3.723 28.18zm-26.684 1.354c0-6.574-.517-12.552-1.547-17.935s-2.788-10-5.27-13.825a25.2 25.2 0 0 0-9.9-8.895c-4.114-2.095-9.28-3.142-15.47-3.142-6.252 0-11.473 1.177-15.662 3.528s-7.574 5.496-10.15 9.427-4.398 8.524-5.462 13.776-1.596 10.813-1.596 16.678c0 6.832.516 12.972 1.547 18.417s2.77 10.104 5.22 13.97a24.01 24.01 0 0 0 9.86 8.846c4.124 2.03 9.313 3.045 15.565 3.045s11.472-1.16 15.662-3.48 7.573-5.477 10.15-9.475 4.4-8.652 5.463-13.97 1.596-10.972 1.596-16.966z"/><path d="M788.256 988.777c-9.742 0-18.37-1.295-25.64-3.848-7.295-2.562-13.462-6.525-18.328-11.78s-8.562-12.02-11-20.112c-2.42-8.065-3.646-17.742-3.646-28.76 0-10.125 1.3-19.365 3.9-27.464 2.587-8.118 6.493-15.124 11.6-20.823s11.54-10.137 19.086-13.182c7.534-3.04 16.396-4.58 26.34-4.58 9.486 0 17.982 1.277 25.252 3.798 7.294 2.528 13.478 6.476 18.378 11.733 4.895 5.25 8.64 11.968 11.134 19.963 2.484 7.975 3.744 17.507 3.744 28.33 0 10.378-1.3 19.796-3.9 27.993-2.588 8.214-6.493 15.285-11.6 21.018s-11.542 10.17-19.088 13.184c-7.535 3.006-16.364 4.53-26.242 4.53zm2.32-129.55c-9.814 0-18.55 1.517-25.965 4.508-7.403 2.987-13.7 7.335-18.716 12.922-5.02 5.593-8.856 12.477-11.4 20.46-2.55 8-3.844 17.14-3.844 27.16 0 10.922 1.213 20.5 3.604 28.474 2.384 7.945 6.006 14.58 10.765 19.72s10.786 9 17.926 11.518c7.165 2.516 15.68 3.8 25.3 3.8 9.75 0 18.454-1.5 25.87-4.46 7.4-2.954 13.697-7.3 18.713-12.92s8.856-12.574 11.4-20.652c2.55-8.1 3.844-17.417 3.844-27.692 0-10.724-1.244-20.155-3.7-28.033-2.448-7.852-6.12-14.438-10.9-19.58s-10.836-8.996-17.974-11.47c-7.164-2.486-15.55-3.745-24.925-3.745zm-1.547 108.57c-6.302 0-11.612-1.042-15.786-3.097a24.59 24.59 0 0 1-10.063-9.026c-2.473-3.903-4.253-8.662-5.3-14.146-1.032-5.448-1.556-11.676-1.556-18.5 0-5.87.54-11.515 1.605-16.776 1.07-5.292 2.934-9.986 5.534-13.952 2.6-3.98 6.083-7.206 10.325-9.588s9.598-3.593 15.906-3.593c6.235 0 11.517 1.075 15.695 3.196 4.185 2.126 7.584 5.177 10.104 9.068 2.504 3.873 4.3 8.584 5.34 14.003 1.032 5.394 1.556 11.46 1.556 18.028 0 6-.54 11.74-1.604 17.064-1.07 5.354-2.933 10.112-5.533 14.144a28.7 28.7 0 0 1-10.329 9.641c-4.245 2.352-9.596 3.544-15.904 3.544zm.677-87.687c-6.136 0-11.322 1.165-15.417 3.465s-7.457 5.42-9.98 9.264c-2.53 3.86-4.344 8.437-5.4 13.603-1.053 5.196-1.586 10.774-1.586 16.578 0 6.77.518 12.938 1.538 18.324 1.014 5.358 2.747 10 5.152 13.796a23.6 23.6 0 0 0 9.66 8.665c4.035 1.986 9.198 2.993 15.345 2.993 6.137 0 11.324-1.15 15.42-3.418s7.454-5.4 9.974-9.3c2.532-3.925 4.347-8.566 5.393-13.796 1.052-5.26 1.585-10.937 1.585-16.87 0-6.507-.518-12.5-1.538-17.84-1.015-5.292-2.763-9.884-5.197-13.648-2.422-3.74-5.7-6.675-9.717-8.72-4.037-2.05-9.165-3.088-15.242-3.088zm182.338 59.343c0 7.672-1.128 14.535-3.384 20.594s-5.575 11.183-9.958 15.37-9.798 7.38-16.242 9.572-13.858 3.287-22.236 3.287c-7.864 0-14.922-.984-21.173-2.95s-11.538-4.945-15.855-8.943-7.622-8.975-9.9-14.937-3.433-12.938-3.433-20.93V864.43c0-.644.193-1.224.58-1.74s1.08-.934 2.08-1.257 2.304-.58 3.915-.773 3.674-.3 6.188-.3c2.45 0 4.48.097 6.1.3s2.9.45 3.867.773 1.66.74 2.08 1.257.628 1.097.628 1.74v73.862c0 4.965.612 9.267 1.837 12.907s2.98 6.655 5.27 9.04 5.027 4.174 8.218 5.365 6.75 1.8 10.683 1.8c3.996 0 7.573-.612 10.73-1.838s5.833-3.012 8.024-5.365 3.883-5.252 5.076-8.7 1.788-7.363 1.788-11.746V864.43c0-.644.193-1.224.58-1.74s1.063-.934 2.03-1.257 2.272-.58 3.916-.773 3.688-.3 6.14-.3 4.463.097 6.043.3 2.852.45 3.818.773 1.644.74 2.03 1.257a2.83 2.83 0 0 1 .58 1.74z"/><path d="M920.224 988.777c-7.874 0-15.048-1-21.322-2.973-6.297-1.98-11.695-5.024-16.046-9.053s-7.732-9.118-10.036-15.125c-2.3-5.988-3.466-13.1-3.466-21.1V864.43a3.34 3.34 0 0 1 .68-2.04c.45-.602 1.216-1.074 2.325-1.433 1.027-.33 2.376-.6 4-.795s3.725-.293 6.247-.293c2.457 0 4.526.1 6.15.293 1.636.196 2.97.465 3.966.796 1.068.357 1.823.82 2.3 1.415a3.2 3.2 0 0 1 .74 2.057v73.862c0 4.888.6 9.177 1.8 12.748 1.194 3.554 2.93 6.532 5.156 8.853s4.927 4.084 8.032 5.243c3.118 1.167 6.653 1.758 10.508 1.758 3.916 0 7.466-.607 10.55-1.804 3.07-1.2 5.7-2.953 7.84-5.24s3.804-5.157 4.97-8.523c1.168-3.38 1.76-7.277 1.76-11.583V864.43a3.34 3.34 0 0 1 .68-2.04c.45-.602 1.196-1.072 2.272-1.432.997-.332 2.35-.6 4.016-.796 1.655-.194 3.74-.293 6.197-.293s4.5.1 6.104.294c1.603.196 2.92.464 3.916.795 1.076.36 1.82.828 2.272 1.43a3.34 3.34 0 0 1 .68 2.041v75.022c0 7.693-1.148 14.68-3.415 20.77-2.273 6.103-5.665 11.337-10.08 15.558s-9.94 7.48-16.427 9.685c-6.476 2.198-14 3.313-22.4 3.313zm-37.6-127.907c-2.482 0-4.545.096-6.128.286-1.57.188-2.855.44-3.82.753-.895.3-1.5.652-1.832 1.08a2.32 2.32 0 0 0-.48 1.44v76.087c0 7.896 1.144 14.877 3.4 20.75 2.25 5.862 5.54 10.825 9.782 14.75s9.512 6.9 15.666 8.834c6.177 1.94 13.25 2.926 21.022 2.926 8.28 0 15.706-1.097 22.076-3.26 6.347-2.158 11.75-5.34 16.057-9.46s7.615-9.225 9.835-15.185c2.225-5.976 3.353-12.846 3.353-20.42v-75.02a2.32 2.32 0 0 0-.48-1.44c-.32-.43-.924-.794-1.788-1.083-.933-.3-2.185-.563-3.72-.75-1.553-.2-3.565-.286-5.982-.286s-4.464.096-6.08.286c-1.6.188-2.884.44-3.816.752-.864.288-1.466.652-1.788 1.082a2.32 2.32 0 0 0-.48 1.44v75.313c0 4.417-.6 8.424-1.815 11.9-1.2 3.5-2.955 6.487-5.183 8.88-2.234 2.4-4.996 4.246-8.2 5.5-3.2 1.242-6.872 1.872-10.912 1.872-3.975 0-7.628-.612-10.858-1.82-3.246-1.213-6.074-3.06-8.403-5.488s-4.14-5.532-5.382-9.227c-1.236-3.674-1.863-8.07-1.863-13.066V864.43a2.19 2.19 0 0 0-.517-1.426c-.356-.437-.98-.807-1.85-1.098-.932-.3-2.2-.563-3.77-.75-1.585-.2-3.615-.285-6.033-.285zm219.754 116.288c0 1.484-.258 2.805-.773 3.965s-1.208 2.127-2.078 2.9-1.902 1.338-3.094 1.7-2.402.53-3.625.53h-10.828c-2.258 0-4.206-.225-5.85-.676s-3.158-1.272-4.544-2.466-2.724-2.804-4.013-4.834-2.74-4.655-4.35-7.88l-31.13-58.5c-1.806-3.48-3.643-7.234-5.512-11.264a202.96 202.96 0 0 1-5.027-11.746h-.193l.58 13.873.193 14.26v65.452c0 .645-.178 1.225-.53 1.74s-.967.95-1.837 1.305-2.047.63-3.528.822-3.385.3-5.705.3c-2.256 0-4.125-.096-5.607-.3s-2.644-.467-3.48-.822-1.418-.8-1.74-1.305a3.21 3.21 0 0 1-.483-1.74V870.038c0-3.03.886-5.3 2.66-6.816s3.947-2.27 6.525-2.27h13.633c2.448 0 4.5.2 6.188.628s3.174 1.112 4.495 2.08 2.562 2.305 3.722 4.012 2.353 3.82 3.578 6.333l24.363 45.73 4.205 8.17 4.012 8.024 3.77 7.88 3.576 7.734h.098l-.436-14.115-.145-14.02V864.72c0-.644.193-1.224.58-1.74s1.03-.967 1.934-1.354 2.094-.66 3.576-.822 3.385-.24 5.705-.24c2.2 0 4.027.08 5.5.24s2.626.436 3.433.822 1.368.838 1.692 1.354.482 1.097.482 1.74z"/><path d="M1010.522 987.132c-2.27 0-4.18-.1-5.672-.293-1.545-.202-2.727-.482-3.6-.858-.93-.392-1.593-.896-1.97-1.5-.37-.592-.56-1.267-.56-2.005V870.038c0-3.17.954-5.6 2.834-7.196 1.858-1.587 4.163-2.392 6.85-2.392h13.633c2.475 0 4.597.216 6.3.643 1.733.436 3.304 1.162 4.67 2.16 1.36.996 2.652 2.387 3.84 4.134 1.168 1.72 2.384 3.872 3.614 6.395l24.355 45.714 4.208 8.175 4.018 8.037 3.772 7.882 2.628 5.644-.34-11.8-.145-14.028V864.72a3.34 3.34 0 0 1 .68-2.04c.44-.586 1.16-1.096 2.138-1.514.94-.403 2.2-.692 3.72-.86 1.502-.162 3.44-.244 5.76-.244l5.563.244c1.555.17 2.73.453 3.595.868.886.425 1.525.942 1.9 1.538a3.7 3.7 0 0 1 .56 2.007v112.438c0 1.547-.274 2.95-.816 4.168s-1.284 2.254-2.203 3.07-2.026 1.424-3.283 1.797a13.27 13.27 0 0 1-3.768.552h-10.828c-2.293 0-4.306-.233-5.982-.693-1.7-.47-3.303-1.334-4.737-2.57-1.416-1.218-2.8-2.88-4.108-4.945-1.303-2.05-2.774-4.717-4.375-7.924l-31.125-58.48c-1.802-3.474-3.66-7.27-5.523-11.287-1.496-3.223-2.883-6.4-4.137-9.503l.45 11.405.193 14.274v65.452a3.51 3.51 0 0 1-.619 2.023c-.4.597-1.104 1.097-2.06 1.484-.902.37-2.132.656-3.652.855-1.495.195-3.436.293-5.77.293zm-2.126-125.682c-2.442 0-4.53.724-6.2 2.152-1.647 1.407-2.483 3.572-2.483 6.436v112.438a2.7 2.7 0 0 0 .407 1.475c.266.426.773.8 1.5 1.1.8.336 1.917.6 3.35.787 1.45.2 3.314.285 5.543.285 2.292 0 4.2-.096 5.64-.285 1.435-.188 2.58-.452 3.403-.8.773-.314 1.316-.692 1.614-1.126a2.49 2.49 0 0 0 .443-1.456v-65.452l-.193-14.246-.608-14.387h1.063l.124.318c1.472 3.776 3.16 7.72 5.015 11.718a286.65 286.65 0 0 0 5.502 11.243l31.13 58.485c1.592 3.2 3.047 5.825 4.33 7.848 1.258 1.98 2.575 3.57 3.917 4.723 1.32 1.138 2.785 1.933 4.35 2.362 1.6.437 3.514.658 5.717.658h10.828c1.167 0 2.34-.172 3.483-.5 1.115-.33 2.092-.864 2.903-1.586s1.47-1.64 1.953-2.73.73-2.356.73-3.762V864.72c0-.553-.133-1.036-.407-1.477-.27-.43-.77-.824-1.484-1.167-.75-.36-1.85-.62-3.27-.775-1.467-.158-3.303-.238-5.456-.238-2.283 0-4.185.08-5.65.238-1.428.156-2.583.42-3.433.784-.815.35-1.397.75-1.73 1.194a2.33 2.33 0 0 0-.48 1.44v58.685l.145 14 .457 14.625h-.845l-.23-.295-3.572-7.726-3.77-7.876-4.006-8.012-4.206-8.172-24.36-45.722c-1.218-2.497-2.4-4.606-3.55-6.287-1.123-1.652-2.335-2.96-3.603-3.9-1.26-.922-2.715-1.595-4.322-1.997-1.63-.407-3.672-.613-6.065-.613h-13.635zm204.478 9.94c0 1.87-.082 3.465-.242 4.785s-.403 2.386-.725 3.2-.726 1.402-1.2 1.8-1.016.58-1.596.58h-31.324V982.57a2.63 2.63 0 0 1-.628 1.74c-.428.514-1.112.936-2.08 1.258s-2.27.58-3.915.773-3.7.3-6.14.3-4.495-.096-6.14-.3-2.95-.45-3.916-.773-1.66-.74-2.078-1.258a2.68 2.68 0 0 1-.629-1.74V881.736h-31.324c-.645 0-1.193-.193-1.643-.58s-.84-.982-1.16-1.8-.565-1.868-.726-3.2-.24-2.915-.24-4.785l.24-4.93c.16-1.354.4-2.433.726-3.24s.708-1.385 1.16-1.74.998-.53 1.643-.53h88.172a2.65 2.65 0 0 1 1.596.531c.483.355.885.936 1.2 1.74s.563 1.886.725 3.24.242 2.997.242 4.93z"/><path d="M1165.017 987.132c-2.463 0-4.548-.1-6.197-.292-1.67-.197-3.02-.465-4.016-.796-1.07-.357-1.827-.82-2.3-1.418-.5-.602-.74-1.293-.74-2.055V882.236h-30.824c-.766 0-1.43-.236-1.97-.7-.512-.438-.95-1.105-1.3-1.982-.337-.838-.592-1.954-.757-3.315-.163-1.33-.245-2.962-.245-4.846l.245-5c.167-1.4.415-2.512.758-3.366.353-.883.795-1.538 1.315-1.946.538-.424 1.194-.64 1.95-.64h88.172c.685 0 1.32.2 1.9.628.563.414 1.015 1.054 1.378 1.957.336.844.6 1.977.757 3.366.163 1.378.246 3.057.246 5 0 1.87-.083 3.5-.246 4.846-.167 1.36-.42 2.476-.756 3.315-.36.897-.807 1.55-1.36 1.994-.572.457-1.214.7-1.908.7h-30.824v100.336a3.19 3.19 0 0 1-.74 2.056c-.483.597-1.24 1.06-2.3 1.417-.995.33-2.346.6-4.015.796-1.65.193-3.736.3-6.198.3zM1120.93 861.45c-.534 0-.97.14-1.333.425-.38.298-.72.813-1.005 1.532-.307.762-.54 1.808-.694 3.112-.157 1.325-.237 2.964-.237 4.872 0 1.844.08 3.434.237 4.725.154 1.275.388 2.306.693 3.064.3.727.633 1.264 1.02 1.596.36.3.8.46 1.317.46h31.824v101.336c0 .532.17.998.517 1.424.354.44.977.8 1.85 1.1.93.3 2.214.563 3.816.75 1.6.2 3.656.286 6.08.286l6.08-.286c1.602-.188 2.886-.44 3.815-.75.87-.3 1.493-.66 1.85-1.1a2.18 2.18 0 0 0 .517-1.425V881.236h31.824c.468 0 .888-.154 1.283-.47.4-.33.768-.862 1.058-1.585.303-.76.536-1.8.692-3.064.158-1.305.238-2.895.238-4.725l-.238-4.872c-.156-1.304-.4-2.35-.693-3.112-.287-.714-.638-1.227-1.04-1.522s-.825-.435-1.3-.435zm193.65 115.128c.773 2.32 1.257 4.158 1.45 5.512s-.065 2.368-.773 3.045-1.967 1.096-3.77 1.257-4.287.24-7.444.24c-3.287 0-5.85-.048-7.686-.145s-3.24-.3-4.206-.58-1.644-.7-2.03-1.2-.7-1.2-.967-2.03l-8.4-25.137h-46.986L1225.83 982c-.26.904-.597 1.66-1.015 2.272s-1.098 1.097-2.03 1.45-2.257.596-3.963.725l-6.72.193c-2.966 0-5.286-.096-6.96-.3s-2.837-.66-3.48-1.402-.87-1.8-.677-3.143.677-3.156 1.45-5.414L1241 865.394c.387-1.096.837-1.982 1.354-2.66s1.337-1.2 2.465-1.547 2.7-.58 4.7-.677l7.928-.145 9.088.145c2.255.097 4.012.323 5.27.677s2.158.887 2.707 1.596 1.015 1.677 1.4 2.9zm-57.428-91.748h-.097l-17.692 53.174h35.48z"/><path d="M1304.042 987.132c-3.287 0-5.882-.05-7.712-.146-1.895-.1-3.3-.296-4.323-.6-1.084-.325-1.832-.78-2.287-1.4-.42-.56-.772-1.294-1.045-2.182l-8.293-24.783h-46.263l-7.815 24.113c-.267.933-.63 1.746-1.077 2.4-.48.697-1.24 1.247-2.268 1.636-.977.37-2.356.624-4.102.756l-6.758.194c-2.977 0-5.338-.1-7.02-.292-1.822-.2-3.066-.725-3.8-1.572-.74-.85-1.008-2.04-.794-3.54.196-1.375.7-3.228 1.473-5.506l38.575-111c.404-1.146.885-2.086 1.43-2.798.575-.756 1.487-1.335 2.712-1.72 1.167-.366 2.787-.602 4.815-.7l7.952-.146 9.1.146c2.28.098 4.1.33 5.384.694 1.355.384 2.354.98 2.967 1.77.583.758 1.08 1.786 1.482 3.056l38.667 110.877c.782 2.345 1.276 4.23 1.474 5.606.216 1.515-.095 2.685-.923 3.477-.803.765-2.134 1.22-4.07 1.394-1.82.162-4.34.244-7.488.244zm-70.65-30.1h47.7l8.525 25.48c.24.788.54 1.42.892 1.887.32.427.916.773 1.774 1.03.925.277 2.3.465 4.1.56l7.66.144 7.4-.24c1.68-.15 2.847-.527 3.47-1.12.6-.563.794-1.418.623-2.612-.188-1.318-.67-3.144-1.43-5.424l-38.67-110.885c-.37-1.172-.815-2.096-1.326-2.76-.48-.617-1.302-1.096-2.446-1.42-1.22-.343-2.953-.564-5.155-.658l-9.066-.145-7.903.145c-1.944.094-3.48.313-4.564.654-1.022.32-1.77.783-2.216 1.372-.48.63-.912 1.48-1.28 2.522l-38.574 110.985c-.76 2.217-1.24 4.008-1.428 5.32-.172 1.2.017 2.122.56 2.744.557.64 1.62 1.056 3.16 1.233 1.642.2 3.965.286 6.903.286l6.683-.192c1.65-.124 2.936-.357 3.823-.693.83-.314 1.436-.74 1.796-1.266.385-.564.704-1.28.946-2.127zm42.145-18.53h-36.868l18.025-54.174h.817l.114.342zm-35.48-1h34.095l-17.048-51.235zm182.613 11.038c0 4.447-.613 8.477-1.837 12.086s-2.917 6.8-5.075 9.57-4.738 5.158-7.734 7.154-6.302 3.643-9.9 4.932-7.46 2.24-11.553 2.852-8.653.918-13.68.918h-33.258c-2.127 0-3.915-.628-5.366-1.885s-2.175-3.303-2.175-6.14V868.974c0-2.836.726-4.883 2.175-6.14s3.24-1.885 5.366-1.885h31.42c7.67 0 14.164.645 19.48 1.934s9.797 3.238 13.44 5.85 6.43 5.914 8.362 9.9 2.9 8.7 2.9 14.115c0 3.03-.387 5.882-1.16 8.556s-1.902 5.1-3.384 7.3-3.304 4.125-5.463 5.8-4.625 3.03-7.396 4.06c3.544.645 6.815 1.773 9.813 3.384s5.607 3.7 7.83 6.235 3.98 5.527 5.27 8.943 1.936 7.25 1.936 11.504zm-32.87-52.7c0-2.514-.387-4.77-1.16-6.768s-1.934-3.657-3.48-4.98-3.497-2.335-5.85-3.045-5.495-1.063-9.426-1.063h-12.858v32.484h14.212c3.674 0 6.605-.436 8.798-1.306s4.013-2.062 5.462-3.577a14.54 14.54 0 0 0 3.24-5.317c.7-2.03 1.063-4.172 1.063-6.43zm6.477 53.56c0-2.9-.483-5.494-1.45-7.783s-2.386-4.205-4.254-5.752-4.254-2.74-7.154-3.577-6.67-1.257-11.312-1.257h-15.082v35.578h18.37c3.544 0 6.526-.37 8.942-1.112s4.5-1.837 6.285-3.287 3.156-3.254 4.156-5.414 1.5-4.625 1.5-7.396z"/><path d="M1372.88 986.552h-33.258c-2.24 0-4.156-.675-5.693-2.007-1.558-1.35-2.348-3.543-2.348-6.517V868.974c0-2.974.8-5.166 2.348-6.518 1.538-1.332 3.453-2.007 5.693-2.007h31.42c7.673 0 14.267.655 19.6 1.947 5.355 1.3 9.936 3.294 13.612 5.93 3.693 2.65 6.56 6.047 8.52 10.1s2.95 8.87 2.95 14.333c0 3.063-.396 5.988-1.18 8.695s-1.944 5.214-3.45 7.44a25.77 25.77 0 0 1-5.57 5.915c-1.78 1.38-3.784 2.56-5.977 3.5 2.966.682 5.76 1.72 8.324 3.1 3.038 1.634 5.72 3.77 7.97 6.347s4.055 5.638 5.36 9.096 1.966 7.4 1.966 11.68c0 4.48-.627 8.6-1.863 12.246s-2.974 6.918-5.154 9.718c-2.187 2.805-4.828 5.25-7.852 7.263-3.017 2.012-6.388 3.7-10.02 4.986-3.627 1.295-7.546 2.263-11.646 2.875-4.1.613-8.72.923-13.754.923zm-33.26-125.102c-1.992 0-3.688.593-5.04 1.763-1.328 1.152-2.002 3.1-2.002 5.762V978.03c0 2.67.674 4.608 2.002 5.76 1.35 1.17 3.046 1.763 5.04 1.763h33.258c4.986 0 9.564-.307 13.606-.912s7.893-1.555 11.46-2.828c3.555-1.27 6.853-2.9 9.8-4.877 2.934-1.955 5.497-4.325 7.617-7.046 2.112-2.7 3.793-5.88 4.996-9.424s1.8-7.556 1.8-11.925c0-4.17-.64-7.98-1.9-11.327s-3.006-6.304-5.18-8.8-4.76-4.547-7.7-6.124-6.2-2.7-9.666-3.333l-1.8-.325 1.707-.635c2.7-1.008 5.152-2.35 7.263-3.987s3.908-3.547 5.355-5.686 2.563-4.548 3.317-7.158c.757-2.616 1.14-5.448 1.14-8.417 0-5.312-.96-9.987-2.85-13.897-1.887-3.9-4.647-7.17-8.203-9.722-3.572-2.56-8.035-4.5-13.267-5.77-5.255-1.273-11.77-1.92-19.362-1.92h-31.42zm35.772 105.67h-18.87v-36.578h15.582c4.662 0 8.515.43 11.45 1.276 2.952.854 5.42 2.1 7.334 3.672 1.924 1.593 3.402 3.593 4.396 5.943.988 2.34 1.5 5.024 1.5 7.978 0 2.83-.52 5.4-1.545 7.605s-2.472 4.1-4.294 5.6-3.992 2.624-6.455 3.38c-2.453.752-5.5 1.134-9.088 1.134zm-17.87-1h17.87c3.48 0 6.438-.367 8.796-1.1 2.34-.717 4.396-1.792 6.115-3.196 1.704-1.396 3.056-3.157 4.02-5.237s1.453-4.5 1.453-7.186c0-2.82-.475-5.372-1.4-7.6a14.43 14.43 0 0 0-4.112-5.562c-1.808-1.495-4.153-2.667-6.974-3.48-2.845-.82-6.604-1.237-11.173-1.237h-14.582zm13.712-53.14h-14.712v-33.484h13.358c3.96 0 7.18.364 9.57 1.084 2.408.728 4.438 1.785 6.03 3.145 1.604 1.37 2.822 3.112 3.622 5.18.793 2.047 1.194 4.385 1.194 6.948 0 2.3-.367 4.517-1.092 6.594-.73 2.094-1.858 3.943-3.35 5.5s-3.388 2.802-5.64 3.695c-2.238.9-5.26 1.34-8.98 1.34zm-13.712-1h13.712c3.592 0 6.5-.428 8.613-1.27s3.895-2.004 5.285-3.458 2.444-3.18 3.13-5.137c.687-1.97 1.035-4.077 1.035-6.264 0-2.44-.38-4.656-1.126-6.587-.74-1.9-1.863-3.52-3.34-4.78-1.486-1.27-3.394-2.26-5.67-2.947-2.297-.7-5.42-1.042-9.28-1.042h-12.358zm154.286 63.437l-.242 4.883c-.16 1.322-.403 2.417-.725 3.287s-.725 1.498-1.2 1.885a2.63 2.63 0 0 1-1.69.58h-57.33c-2.127 0-3.915-.628-5.366-1.885s-2.175-3.303-2.175-6.14V864.43c0-.644.208-1.224.628-1.74s1.112-.934 2.08-1.257 2.272-.58 3.915-.773 3.7-.3 6.14-.3l6.188.3c1.6.193 2.9.45 3.867.773s1.658.74 2.08 1.257.628 1.097.628 1.74v100.644h39.35c.644 0 1.2.178 1.7.53s.886.936 1.2 1.74.563 1.87.725 3.2.24 2.95.24 4.882z"/><path d="M1507.94 986.552h-57.33c-2.24 0-4.156-.675-5.693-2.007-1.558-1.35-2.348-3.543-2.348-6.517V864.43c0-.76.25-1.452.74-2.056.483-.596 1.238-1.06 2.3-1.416.997-.332 2.348-.6 4.015-.796 1.656-.194 3.74-.293 6.198-.293l6.247.293c1.636.196 2.97.465 3.966.796 1.066.356 1.82.82 2.308 1.415.492.607.74 1.3.74 2.057v100.144h38.85c.75 0 1.418.2 1.987.628.563.414 1.015 1.055 1.377 1.957.337.847.592 1.962.757 3.316.163 1.346.246 3 .246 4.942s-.083 3.6-.246 4.943c-.164 1.35-.417 2.494-.752 3.4-.36.97-.806 1.656-1.366 2.103a3.12 3.12 0 0 1-2.004.69zm-52.1-125.682l-6.08.286c-1.6.188-2.884.44-3.815.752-.87.3-1.494.66-1.85 1.098-.347.427-.516.893-.516 1.425v113.6c0 2.67.674 4.608 2.002 5.76 1.35 1.17 3.046 1.763 5.04 1.763h57.33c.533 0 .984-.153 1.38-.47.408-.327.763-.888 1.053-1.67.308-.832.542-1.9.697-3.174.158-1.305.238-2.927.238-4.822l-.238-4.82c-.155-1.27-.4-2.3-.693-3.066-.286-.713-.637-1.226-1.04-1.52-.398-.292-.855-.435-1.396-.435h-39.85V864.43a2.19 2.19 0 0 0-.517-1.426c-.356-.437-.98-.807-1.85-1.098-.932-.3-2.2-.563-3.77-.75-1.583-.2-3.644-.285-6.126-.285zm145.106 115.225c0 1.87-.082 3.432-.242 4.688s-.403 2.272-.725 3.046-.725 1.338-1.2 1.7a2.63 2.63 0 0 1-1.595.531h-62.842c-2.127 0-3.915-.628-5.366-1.885s-2.175-3.303-2.175-6.14v-109.05c0-2.836.726-4.883 2.175-6.14s3.24-1.885 5.366-1.885h62.455a2.59 2.59 0 0 1 1.547.483c.452.323.837.887 1.16 1.7s.563 1.837.726 3.094.24 2.853.24 4.786c0 1.805-.082 3.335-.24 4.592s-.404 2.272-.726 3.046-.7 1.338-1.16 1.7-.967.532-1.547.532h-44.666v30.55h37.802a2.66 2.66 0 0 1 1.596.53c.486.352.885.903 1.208 1.644s.563 1.74.726 2.997.24 2.8.24 4.593c0 1.87-.082 3.417-.24 4.64s-.404 2.208-.726 2.948-.726 1.273-1.208 1.596a2.81 2.81 0 0 1-1.596.483h-37.802v35.287h45.053c.58 0 1.112.18 1.595.532s.886.92 1.2 1.692.563 1.788.725 3.045.242 2.822.242 4.7z"/><path d="M1597.176 986.552h-62.842c-2.24 0-4.156-.675-5.693-2.007-1.558-1.35-2.348-3.543-2.348-6.517V868.974c0-2.974.8-5.166 2.348-6.518 1.538-1.332 3.453-2.007 5.693-2.007h62.455c.682 0 1.3.193 1.837.576s.972 1 1.334 1.912c.337.845.59 1.927.758 3.217s.245 2.917.245 4.85c0 1.805-.082 3.37-.245 4.655-.167 1.295-.423 2.362-.76 3.174-.356.853-.798 1.49-1.313 1.894-.54.424-1.164.64-1.855.64h-44.166v29.55h37.302a3.15 3.15 0 0 1 1.891.628c.553.406 1.014 1.027 1.37 1.847.34.784.597 1.838.764 3.134.163 1.285.245 2.852.245 4.656 0 1.87-.083 3.453-.245 4.705-.168 1.266-.425 2.303-.763 3.083-.36.83-.83 1.438-1.4 1.813a3.32 3.32 0 0 1-1.873.567h-37.302v34.287h44.553c.685 0 1.32.212 1.89.63.554.405 1.017 1.046 1.374 1.903.34.813.594 1.882.76 3.174.163 1.282.246 2.882.246 4.753s-.083 3.47-.246 4.752c-.166 1.293-.42 2.36-.76 3.174-.36.86-.822 1.5-1.376 1.904-.566.414-1.203.626-1.89.626zm-62.842-125.102c-1.992 0-3.688.593-5.04 1.763-1.328 1.152-2.002 3.09-2.002 5.762V978.03c0 2.67.674 4.608 2.002 5.76 1.35 1.17 3.046 1.763 5.04 1.763h62.842c.478 0 .902-.142 1.298-.434.406-.297.758-.795 1.045-1.48.303-.73.535-1.712.69-2.917.158-1.24.238-2.796.238-4.625s-.08-3.386-.238-4.626c-.154-1.204-.387-2.186-.7-2.917-.286-.686-.638-1.184-1.042-1.48s-.825-.436-1.3-.436h-45.553V930.35h38.302c.484 0 .916-.13 1.318-.4s.744-.73 1.027-1.38c.3-.694.532-1.642.688-2.814.157-1.208.237-2.748.237-4.575 0-1.763-.08-3.287-.237-4.53-.155-1.202-.387-2.165-.688-2.86-.286-.655-.638-1.14-1.045-1.44a2.14 2.14 0 0 0-1.3-.435h-38.302v-31.55h45.166c.47 0 .874-.14 1.238-.425.38-.3.72-.8 1.008-1.492.303-.73.535-1.7.7-2.916.157-1.242.237-2.766.237-4.528 0-1.892-.08-3.48-.237-4.723-.155-1.206-.39-2.206-.694-2.972-.284-.7-.617-1.205-.987-1.47s-.778-.4-1.255-.4h-62.455z"/></g></g><path d="M798.113 698.6c-.2-.675-.483-1.127-.838-1.383-.348-.25-.797-.375-1.333-.375-.68 0-1.553.4-2.67 1.22-1 .735-2.3 1.576-3.857 2.5-1.543.913-3.425 1.76-5.596 2.52-2.146.75-4.735 1.13-7.697 1.13-3.248 0-6.203-.6-8.788-1.814-2.575-1.198-4.807-3.046-6.633-5.494-1.837-2.463-3.274-5.65-4.27-9.476-1.002-3.845-1.5-8.466-1.5-13.735 0-4.805.476-9.18 1.415-13.004.935-3.808 2.32-7.095 4.12-9.77 1.787-2.66 3.982-4.73 6.523-6.16 2.532-1.425 5.455-2.147 8.688-2.147 2.956 0 5.53.402 7.654 1.197 2.146.804 4.016 1.7 5.56 2.7 1.557 1 2.84 1.9 3.817 2.7 1.83 1.505 3.172 1.7 4.172.787.366-.34.664-.84.9-1.534.23-.644.392-1.5.483-2.512.088-.998.132-2.217.132-3.624 0-1.316-.033-2.438-.1-3.335a19.87 19.87 0 0 0-.3-2.378c-.138-.696-.33-1.284-.567-1.747s-.66-1.02-1.282-1.7-1.667-1.447-3.196-2.37c-1.493-.9-3.195-1.706-5.058-2.393s-3.9-1.247-6.1-1.67-4.492-.64-6.854-.64c-5.807 0-11.2 1.077-16.028 3.2-4.838 2.127-9.042 5.3-12.5 9.4-3.45 4.102-6.17 9.237-8.088 15.26-1.913 6-2.883 12.98-2.883 20.718 0 7.595.88 14.35 2.622 20.08 1.743 5.747 4.3 10.613 7.572 14.463a31.43 31.43 0 0 0 12.019 8.738c4.676 1.934 9.988 2.916 15.8 2.916 2.962 0 5.762-.263 8.32-.782 2.552-.518 4.854-1.176 6.84-1.954 1.992-.78 3.703-1.608 5.086-2.46 1.42-.876 2.36-1.584 2.875-2.165.5-.566.874-1.083 1.1-1.542s.425-1.008.565-1.63c.134-.605.236-1.336.302-2.175.066-.828.1-1.844.1-3.023 0-1.685-.044-3.056-.132-4.08-.094-1.055-.228-1.857-.412-2.46zm61.987 7.258c-.22-.568-.522-.744-.765-.886-.064-.037-.133-.077-.205-.134-.323-.256-.786-.236-1.113-.146a1.06 1.06 0 0 1-.272.037H827.35v-25.21h25.523c.532 0 .968-.263 1.365-.552.38-.272.7-.748.987-1.432.228-.568.402-1.336.52-2.295.1-.907.166-2.065.166-3.443l-.166-3.4c-.113-.955-.288-1.73-.52-2.3a2.99 2.99 0 0 0-.967-1.301c-.477-.376-1-.394-1.384-.394H827.35V643.22h30.137c.554 0 1-.296 1.365-.605.348-.295.65-.773.925-1.482.227-.6.4-1.38.517-2.357.1-.932.166-2.076.166-3.405l-.166-3.54c-.113-.95-.286-1.745-.515-2.365-.24-.642-.552-.872-.827-1.076l-.118-.088c-.286-.22-.65-.272-1.07-.213-.1.012-.183.008-.277.008h-41.982c-1.304 0-3.154.145-4.316 1.234-.934.873-1.987 2.197-1.987 4.553v79.17c0 2.36 1.018 4.15 1.987 5.06 1.122 1.05 2.847 1.738 4.316 1.738h42.242c.5 0 .894-.315 1.2-.583l.174-.136c.357-.28.665-.776.97-1.565.223-.58.397-1.38.517-2.393.1-.932.166-2.107.166-3.494l-.166-3.48c-.116-.965-.3-1.753-.52-2.346zm76.5 4.628l-7.08-17.892-2.555-5.84c-.877-1.726-1.82-3.284-2.805-4.63-.992-1.357-2.07-2.533-3.2-3.492a20.04 20.04 0 0 0-2.658-1.903c2.218-.85 4.245-1.922 6.037-3.197 2.072-1.475 3.84-3.24 5.254-5.244s2.498-4.3 3.224-6.854 1.092-5.383 1.092-8.456c0-3.64-.513-6.922-1.525-9.75-1.016-2.836-2.506-5.327-4.427-7.402s-4.3-3.777-7.045-5.063c-2.737-1.278-5.854-2.188-9.283-2.7-.548-.066-1.27-.066-2.058-.048-.596.013-1.217.027-1.87-.016-.795-.05-1.705-.02-2.735.034l-2.756.078h-21.77c-1.417 0-2.87.166-4 1.234-1.173 1.098-1.68 2.516-1.68 4.553v82.47c0 .507.164 1.014.536 1.55.312.45.856.82 1.636 1.1.673.243 1.596.44 2.754.588 1.12.142 2.53.215 4.198.215 1.707 0 3.13-.073 4.228-.215 1.135-.147 2.02-.34 2.706-.587.707-.254 1.24-.6 1.598-1.085.32-.425.492-.94.492-1.566v-33.8h4.9c1.48 0 3.184.104 4.606.726 1.4.62 2.555 1.445 3.498 2.504 1.07 1.2 2 2.612 2.816 4.306l2.645 6.043 7.53 20.247c.184.597.42 1.122.7 1.562.316.483.84.877 1.564 1.172.68.278 1.57.462 2.714.56 1.084.095 2.564.142 4.397.142l5.173-.142c1.316-.1 2.295-.27 2.992-.52.782-.28 1.28-.65 1.517-1.13.207-.42.312-.933.312-1.522 0-.512-.1-1.185-.342-2.06-.222-.84-.663-2.166-1.317-3.95zm-34.22-67.32c.9-.046 1.65-.082 2.266-.002l.972.113c.694.07 1.35.14 1.907.3 2.797.824 4.723 2.153 5.886 4.058 1.22 1.998 1.8 4.38 1.8 7.282 0 1.895-.286 3.57-.876 5.118a10.53 10.53 0 0 1-2.604 3.92c-1.177 1.1-2.647 1.96-4.37 2.557-1.8.622-3.88.92-6.203.92h-8.27v-24.2h7.23l2.252-.058zm102.394-13.63c-.236-.636-.558-.878-.84-1.092l-.13-.1c-.3-.237-.686-.296-1.12-.246-.086.01-.174.003-.265.003H943.14c-.106 0-.208.006-.305-.004-.46-.05-.84.003-1.126.25a2.93 2.93 0 0 0-.927 1.331c-.245.66-.408 1.426-.516 2.402-.1 1-.165 2.2-.165 3.6l.165 3.513c.112 1 .28 1.795.55 2.516.292.795.526 1.383.876 1.705l.14.116c.312.306.737.705 1.308.705h20.33v72.124c0 .62.314 1.14.634 1.566.325.433.886.798 1.685 1.084.667.24 1.596.44 2.768.588 1.12.142 2.533.215 4.205.215 1.666 0 3.078-.073 4.198-.215 1.16-.147 2.057-.34 2.742-.587.82-.295 1.232-.713 1.512-1.084.4-.518.406-1.1.406-1.567v-72.124h20.8c.507 0 .892-.35 1.202-.646l.2-.176c.34-.294.645-.817.955-1.654.222-.597.395-1.44.516-2.5.1-.98.165-2.18.165-3.567l-.165-3.654c-.114-1.036-.286-1.873-.515-2.5zm27.266.75c.026-.37.05-.83-.333-1.342-.27-.36-.555-.735-1.3-1.005-.683-.245-1.594-.443-2.707-.587-1.1-.142-2.523-.215-4.225-.215-1.66 0-3.06.073-4.16.215-1.1.144-2.03.34-2.733.586-1.06.37-1.638.695-1.932 1.085l-.122.178c-.3.366-.634.822-.634 1.387v85.768c0 .568.345 1.024.635 1.4l.13.175c.312.415.884.77 1.757 1.084.654.237 1.597.435 2.804.588 1.12.142 2.54.215 4.223.215 1.715 0 3.14-.073 4.24-.215 1.126-.146 2.038-.345 2.712-.587.75-.27 1.033-.65 1.36-1.084s.3-.895.284-1.265c-.01-.1 0-.2 0-.3l-.001-86.07zm65.303-.764c-.246-.604-.544-.84-.8-1.05l-.145-.118c-.3-.246-.662-.312-1.102-.257-.085.01-.172.003-.264.003h-39.577c-1.405 0-3.147.157-4.297 1.234-.924.864-1.967 2.18-1.967 4.553v82.33c0 .587.367 1.038.677 1.402l.185.234c.3.398.848.74 1.792 1.113.657.26 1.613.473 2.842.628 1.12.142 2.543.215 4.234.215 1.72 0 3.148-.073 4.247-.215 1.128-.147 2.055-.357 2.757-.626.716-.273.95-.64 1.158-.965l.1-.165c.288-.415.234-.853.177-1.203-.02-.133-.028-.272-.028-.417v-32.66h26.003c.5 0 .864-.346 1.157-.638l.2-.2c.395-.337.693-1 .955-1.67.303-.777.468-1.8.552-2.527.1-.958.165-2.172.165-3.6l-.165-3.6c-.114-.987-.3-1.793-.557-2.396-.288-.68-.646-.955-.97-1.207-.32-.246-.644-.277-.906-.277l-26.443.01v-23.23h27.693c.522 0 .903-.366 1.2-.676l.172-.16c.375-.35.67-.965.934-1.584.3-.733.474-1.76.557-2.497.1-.98.165-2.204.165-3.637l-.165-3.654c-.112-1.037-.297-1.88-.552-2.506zm29.63-1.582c-.683-.245-1.592-.443-2.705-.587-1.1-.142-2.522-.215-4.224-.215-1.66 0-3.06.073-4.16.215s-2.03.34-2.733.586c-.915.32-1.493.675-1.803 1.085-.328.436-.66.95-.66 1.567v85.768c0 .618.333 1.132.66 1.566.32.43.888.794 1.698 1.084.665.24 1.596.44 2.775.588 1.12.142 2.534.215 4.208.215 1.7 0 3.134-.073 4.233-.215 1.12-.146 2.035-.344 2.708-.587.744-.268 1.143-.627 1.488-1.084.366-.487.38-1.017.38-1.567V630.5c0-.465-.014-1-.38-1.48a2.96 2.96 0 0 0-1.485-1.084zm69.643 77.92c-.22-.567-.522-.743-.765-.885-.065-.037-.133-.077-.205-.134-.323-.256-.786-.236-1.113-.146a1.06 1.06 0 0 1-.272.037h-30.133v-25.21h25.26c.532 0 .968-.263 1.366-.552.383-.274.705-.736.986-1.432.23-.568.403-1.336.52-2.295.1-.913.165-2.07.165-3.443l-.165-3.4c-.113-.955-.288-1.73-.52-2.3a2.98 2.98 0 0 0-.968-1.3c-.477-.376-1-.394-1.384-.394h-25.26V643.22H1194c.556 0 1.002-.296 1.366-.606.347-.294.65-.773.924-1.48.228-.6.4-1.38.518-2.357.1-.937.165-2.08.165-3.405l-.165-3.54c-.113-.95-.286-1.745-.516-2.366-.24-.64-.552-.87-.826-1.075l-.12-.1c-.285-.22-.65-.272-1.07-.213-.1.012-.18.008-.277.008h-41.982c-1.352 0-3.035.157-4.184 1.234-.804.752-1.855 2.06-1.855 4.553v79.17c0 2.05.7 3.977 1.855 5.06s2.752 1.738 4.184 1.738h42.242c.5 0 .894-.315 1.2-.583l.174-.136c.357-.28.665-.775.97-1.564.224-.58.398-1.382.518-2.394.1-.937.165-2.1.165-3.494l-.165-3.48c-.116-.964-.3-1.752-.518-2.346zm82.8-52.9c-1.878-5.52-4.66-10.222-8.27-13.98-3.423-3.56-7.675-6.204-13.383-8.276-4.855-1.762-10.97-2.602-19.246-2.602h-21.575c-1.33 0-3.217.145-4.38 1.234-.963.9-2.05 2.25-2.05 4.553v79.17c0 2.316 1.052 4.123 2.05 5.06 1.122 1.05 2.874 1.738 4.38 1.738h20.08c6.956 0 13.492-.96 19.426-2.9 5.32-1.73 10.012-4.58 13.944-8.485 3.786-3.76 6.745-8.72 8.798-14.747 2.023-5.944 3.048-13.198 3.048-21.564 0-7.246-.95-13.708-2.822-19.212zm-29.385-7.6c3.23 1.523 5.762 3.54 7.742 6.15 2.042 2.694 3.48 5.775 4.397 9.4s1.38 7.634 1.38 11.867c0 5.162-.53 9.742-1.575 13.612-1.04 3.846-2.626 7.1-4.714 9.676-2.478 3.055-5.1 5.148-7.825 6.257-3.987 1.63-7.793 2.403-11.638 2.403h-9.142v-61.506h8.884c5.38-.001 9.468.7 12.5 2.132z" fill="#00137f"/></g><defs ><path id="B" d="M614.426 967.103l-.145 4.11c-.097 1.13-.242 2.096-.436 2.9s-.45 1.498-.773 2.078-.838 1.242-1.547 1.982-2.078 1.69-4.108 2.852-4.513 2.272-7.444 3.336-6.284 1.95-10.055 2.658-7.848 1.064-12.23 1.064c-8.572 0-16.307-1.322-23.203-3.965s-12.762-6.59-17.596-11.843-8.54-11.8-11.118-19.675-3.867-17.015-3.867-27.456c0-10.635 1.417-20.076 4.254-28.327s6.8-15.18 11.892-20.786 11.198-9.86 18.32-12.762 14.97-4.35 23.54-4.35c3.48 0 6.83.3 10.055.87s6.203 1.338 8.943 2.27 5.204 2.016 7.396 3.24 3.723 2.27 4.593 3.142 1.465 1.596 1.788 2.176.58 1.32.773 2.224.34 1.967.436 3.2.145 2.74.145 4.544c0 1.934-.064 3.577-.193 4.93s-.354 2.45-.677 3.287-.7 1.45-1.16 1.837-.967.58-1.547.58c-.967 0-2.19-.563-3.674-1.692s-3.4-2.384-5.752-3.77-5.157-2.642-8.41-3.77-7.14-1.69-11.65-1.69c-4.964 0-9.395 1.015-13.293 3.045s-7.22 4.93-9.958 8.7-4.82 8.33-6.236 13.68-2.127 11.376-2.127 18.08c0 7.348.757 13.713 2.272 19.094s3.674 9.813 6.478 13.294 6.188 6.075 10.15 7.782 8.426 2.562 13.4 2.562c4.51 0 8.41-.53 11.698-1.595s6.106-2.24 8.46-3.528 4.285-2.45 5.8-3.48 2.7-1.547 3.528-1.547c.644 0 1.16.13 1.547.387s.71.773.967 1.547.45 1.854.58 3.238.19 3.24.19 5.56z"/></defs></svg>